<?xml version="1.0" standalone="no"?>
<!DOCTYPE svg PUBLIC "-//W3C//DTD SVG 20010904//EN"
 "http://www.w3.org/TR/2001/REC-SVG-20010904/DTD/svg10.dtd">
<svg version="1.0" xmlns="http://www.w3.org/2000/svg"
 width="888.000000pt" height="1184.000000pt" viewBox="0 0 888.000000 1184.000000"
 preserveAspectRatio="xMidYMid meet">

<g transform="translate(0.000000,1184.000000) scale(0.100000,-0.100000)"
fill="#000000" stroke="none">
<path d="M0 10060 l0 -1780 111 0 c109 0 383 16 426 25 12 3 35 16 51 30 41
34 48 31 23 -9 l-21 -33 40 7 c23 4 44 10 47 14 3 3 12 1 19 -5 17 -14 84 7
84 26 0 8 22 24 49 35 26 12 65 39 86 60 28 29 42 37 51 29 16 -13 34 18 34
60 0 34 -10 38 -43 17 -12 -8 -38 -17 -57 -21 -19 -4 -60 -22 -90 -39 -85 -48
-110 -60 -115 -54 -6 6 41 39 59 42 6 1 22 9 36 19 14 10 49 32 79 50 59 35
82 65 40 53 -13 -3 -44 -9 -68 -13 -35 -5 -43 -3 -39 8 3 8 36 21 76 30 69 15
102 32 102 50 0 27 -153 -14 -195 -52 -11 -10 -47 -32 -80 -49 -33 -17 -82
-47 -109 -67 -49 -37 -49 -36 -6 32 26 42 25 44 -22 28 -44 -15 -82 -14 -70 2
4 6 34 24 67 41 33 16 64 40 70 52 5 12 15 22 21 22 6 0 19 9 30 21 10 12 32
28 48 36 30 15 43 25 76 54 10 9 34 22 54 29 20 6 39 16 42 22 4 5 23 17 43
25 l36 16 -40 17 c-34 14 -37 18 -22 26 10 6 61 8 113 6 56 -2 100 1 107 7 7
5 25 12 39 15 15 2 35 9 45 15 16 9 15 11 -10 20 -16 6 -45 11 -65 11 -25 0
-33 3 -23 9 7 5 10 14 7 20 -5 7 3 11 23 11 16 0 33 5 36 10 3 6 1 10 -4 10
-6 0 -11 5 -11 10 0 6 16 10 35 10 19 0 35 5 35 10 0 6 -1 10 -2 10 -2 0 -41
7 -88 15 -115 20 -239 19 -410 -5 -79 -11 -145 -18 -147 -16 -12 12 36 26 127
36 57 6 108 14 112 16 4 3 45 7 90 10 46 3 97 10 115 15 19 6 62 7 103 3 38
-3 70 -4 70 0 0 9 -69 36 -92 36 -10 0 -21 7 -24 15 -4 9 -19 15 -36 15 -17 0
-27 4 -23 10 3 6 27 10 52 10 37 0 43 2 34 14 -6 7 -25 16 -41 20 -40 8 -38
26 3 26 17 0 39 4 46 9 12 8 8 11 -15 16 -48 11 -56 14 -49 25 4 6 15 6 30 0
14 -5 31 -7 39 -4 8 3 24 0 36 -6 22 -12 130 -4 130 9 0 4 -9 17 -20 29 -14
15 -17 22 -7 22 7 0 22 8 33 18 13 13 26 16 39 11 52 -20 62 1 14 27 -37 19
-25 34 29 34 17 0 32 5 32 11 0 8 14 10 43 6 37 -5 40 -4 24 8 -11 8 -17 23
-15 36 2 19 11 25 47 31 25 4 48 13 52 20 6 9 16 8 44 -5 20 -9 44 -17 53 -17
10 0 28 -7 40 -16 18 -13 26 -13 38 -3 12 10 22 8 53 -9 21 -12 44 -22 50 -22
6 0 35 -16 65 -35 30 -19 59 -35 63 -35 4 0 20 -14 35 -32 21 -26 29 -30 39
-21 10 10 7 18 -14 39 -15 15 -27 29 -27 33 0 3 -17 14 -38 24 -21 10 -52 30
-68 43 l-29 24 30 -6 c17 -4 44 -15 61 -25 17 -11 39 -19 48 -19 9 0 16 -7 16
-15 0 -8 5 -15 11 -15 6 0 17 -7 25 -15 21 -21 26 -19 70 16 l39 32 -37 -7
c-22 -4 -38 -3 -38 2 0 6 21 13 46 17 50 7 50 14 1 32 l-32 11 28 1 c16 1 26
5 23 10 -4 5 0 12 6 14 10 4 9 8 -2 16 -13 9 -13 11 3 11 9 0 17 4 17 8 0 5
18 17 40 27 22 10 46 25 53 33 10 13 5 15 -48 10 -33 -3 -64 -8 -70 -9 -5 -2
-12 1 -14 6 -3 6 9 14 25 19 48 14 59 22 60 44 1 15 -3 19 -15 14 -13 -4 -12
-1 3 16 11 12 29 22 40 22 12 0 26 10 32 24 9 20 9 23 -8 18 -27 -7 -22 4 15
27 29 19 30 21 10 21 -41 0 -24 18 23 25 43 6 45 8 30 24 -22 24 -20 34 6 26
22 -7 59 -7 138 0 25 2 95 8 155 13 84 7 118 14 145 31 19 11 28 21 19 21 -8
0 -23 6 -32 13 -14 10 -8 12 42 13 32 1 67 7 77 13 18 10 18 10 1 11 -10 0
-17 6 -14 13 4 14 43 16 70 4 24 -11 18 14 -8 31 -17 11 -13 13 35 8 30 -2 73
-1 95 3 l40 8 -32 14 c-18 7 -33 19 -33 26 0 7 -13 19 -29 28 -17 8 -33 20
-37 26 -9 15 8 6 54 -28 19 -14 44 -23 60 -22 49 4 64 0 59 -15 -6 -16 13 -26
49 -26 14 0 22 4 19 10 -3 6 -17 10 -31 10 -17 0 -24 5 -24 20 0 14 7 20 23
20 13 0 32 -9 42 -20 23 -25 57 -27 49 -2 -5 16 -5 16 6 0 12 -19 87 -27 75
-8 -3 6 -14 10 -24 10 -25 0 -46 26 -30 36 7 4 15 2 17 -4 2 -7 11 -12 20 -12
10 0 26 -7 36 -15 13 -10 22 -11 26 -5 5 8 15 8 34 0 15 -5 38 -10 52 -10 13
0 24 -4 24 -10 0 -5 9 -10 20 -10 14 0 18 5 13 18 -4 9 -12 21 -20 25 -7 4
-13 13 -13 18 0 6 5 7 11 3 6 -3 4 8 -5 24 -23 44 -20 48 10 13 14 -17 32 -31
40 -31 8 0 14 -4 14 -10 0 -5 12 -20 27 -34 22 -21 28 -22 40 -10 11 10 11 18
3 35 -14 25 -3 41 11 16 6 -9 21 -17 34 -17 13 0 27 -5 30 -10 4 -6 15 -8 26
-5 10 4 19 2 19 -3 0 -5 11 -12 25 -14 28 -6 29 -4 15 22 -6 11 -26 21 -52 25
-70 11 -83 16 -67 26 11 7 9 10 -8 15 -13 4 -23 13 -23 20 0 8 10 19 23 24 22
9 12 10 -110 14 -17 1 -35 5 -40 10 -4 5 1 7 15 3 12 -3 20 -1 16 4 -3 5 -18
9 -35 9 -16 0 -29 5 -29 10 0 6 10 10 23 10 19 0 17 3 -10 16 -34 17 -47 42
-15 28 9 -4 31 -8 48 -10 46 -3 94 -15 94 -22 0 -13 74 -31 81 -20 4 5 17 7
30 4 24 -7 24 -7 4 10 -20 16 -20 16 5 10 14 -3 29 -6 33 -6 5 0 6 -3 3 -8 -2
-4 13 -8 35 -8 24 -1 36 2 32 9 -4 7 1 8 13 3 33 -13 37 -12 49 12 l12 23 6
-29 c5 -23 13 -31 34 -34 15 -3 36 -9 47 -13 16 -7 17 -6 7 13 -15 28 0 28 24
2 10 -11 26 -20 37 -20 10 0 18 -6 19 -12 1 -7 4 -2 8 11 7 27 31 41 31 18 0
-14 19 -27 47 -33 7 -1 13 7 13 19 1 20 2 19 16 -6 11 -21 20 -26 35 -22 12 4
21 1 25 -9 3 -9 10 -14 15 -11 4 3 4 16 0 28 -7 19 -5 22 14 22 15 0 21 -5 17
-17 -7 -27 26 -123 49 -144 13 -11 19 -13 14 -4 -5 8 -8 27 -7 42 2 18 -3 31
-13 34 -8 3 -13 9 -10 13 2 4 -2 19 -10 34 -8 16 -10 29 -4 33 5 3 7 15 3 27
-4 12 -7 29 -7 37 1 8 -14 26 -33 40 -21 16 -34 34 -34 48 0 20 2 22 23 11 12
-6 38 -23 57 -38 19 -14 40 -25 46 -23 6 1 23 -14 38 -33 28 -36 50 -47 39
-19 -5 15 -3 14 21 -1 l27 -18 -6 25 c-4 16 -2 29 6 33 8 6 10 4 4 -4 -4 -7 1
-30 10 -52 20 -43 31 -47 16 -5 -8 20 -7 26 3 26 7 0 16 -15 20 -32 10 -49 46
-118 62 -118 9 0 14 11 14 33 l1 32 14 -34 c17 -39 18 -44 6 -37 -5 4 -7 -3
-4 -13 5 -19 6 -19 24 -2 16 14 17 23 9 51 -7 26 -7 31 2 22 23 -23 30 -12 23
36 -6 44 -5 46 9 27 8 -11 16 -15 17 -10 0 6 5 -1 9 -15 6 -19 8 -11 9 33 1
68 17 75 27 12 5 -39 9 -45 25 -40 15 5 19 1 19 -20 0 -19 -4 -26 -14 -22 -10
4 -12 0 -9 -14 4 -13 1 -19 -8 -17 -10 2 -14 -10 -16 -47 -1 -27 1 -60 3 -73
7 -35 44 -11 44 29 0 19 4 28 11 24 5 -4 15 7 22 24 6 17 17 29 23 27 7 -3 15
7 18 20 7 28 66 114 66 96 0 -6 -5 -23 -10 -38 -8 -19 -7 -30 2 -41 10 -12 9
-17 -3 -27 -21 -16 -56 -76 -74 -125 -15 -43 -6 -57 13 -18 l11 22 0 -22 c1
-12 -11 -31 -26 -44 l-28 -21 25 7 c41 12 51 26 48 66 -1 21 1 42 5 45 4 4 7
-14 7 -41 0 -43 2 -46 17 -34 15 13 15 12 5 -8 -59 -110 102 -38 226 100 18
20 38 37 44 37 6 0 3 -9 -7 -20 -10 -11 -13 -20 -7 -20 5 0 8 -9 5 -20 -6 -23
15 -28 23 -5 4 8 10 12 15 9 5 -3 9 2 9 10 0 9 4 16 8 16 4 0 6 -15 4 -34 -6
-51 15 -54 38 -4 17 37 20 40 21 18 1 -14 2 -33 1 -42 -2 -25 33 -42 57 -28
14 7 22 7 27 -1 4 -8 9 -7 15 2 7 11 10 9 15 -6 7 -28 43 -50 57 -36 16 16 30
13 23 -5 -10 -27 4 -65 23 -59 10 3 23 -3 31 -15 8 -11 22 -20 32 -20 10 0 18
-7 18 -16 0 -8 5 -12 10 -9 18 11 38 -14 32 -40 -4 -25 11 -35 23 -15 10 17
36 -16 28 -36 -5 -13 -3 -16 10 -11 9 3 17 3 17 -1 0 -8 76 -31 133 -39 20 -3
37 -9 37 -14 0 -5 11 -9 25 -9 14 0 25 -4 25 -10 0 -5 10 -10 23 -11 16 -1 13
-4 -13 -12 -27 -8 -31 -11 -15 -14 63 -13 177 -61 188 -79 4 -8 19 -14 32 -14
13 0 27 -4 30 -10 3 -5 15 -10 26 -10 10 0 19 -4 19 -9 0 -5 9 -13 21 -16 11
-4 18 -9 15 -12 -3 -3 -17 2 -31 11 -14 9 -25 13 -25 9 0 -12 59 -43 81 -43
10 0 19 -4 19 -9 0 -5 21 -18 48 -29 39 -18 43 -21 21 -22 -15 0 -47 12 -73
26 -25 14 -46 24 -46 21 0 -2 22 -23 50 -46 30 -26 47 -35 43 -24 -6 17 -5 17
15 -1 12 -10 21 -21 20 -25 -1 -3 4 -19 10 -34 19 -45 2 -55 -29 -17 -25 29
-29 31 -43 18 -13 -14 -10 -19 27 -45 67 -47 71 -49 63 -27 -4 10 11 0 33 -23
25 -27 46 -40 56 -37 8 3 21 -1 30 -9 8 -8 34 -18 57 -22 49 -9 88 -31 88 -51
0 -8 6 -14 13 -14 6 0 24 -13 40 -29 15 -16 40 -32 56 -36 22 -5 30 -13 35
-36 4 -23 11 -29 31 -29 14 0 25 -3 25 -8 0 -14 152 -82 184 -82 7 0 25 11 40
25 34 31 131 105 138 105 3 0 23 16 44 36 22 20 56 48 77 61 20 14 37 30 37
34 0 5 32 25 70 44 39 19 70 33 70 31 0 -9 201 49 240 69 15 8 70 19 121 25
52 6 110 13 129 16 19 3 117 5 216 5 157 1 192 -2 260 -21 150 -41 241 -104
262 -180 7 -23 10 401 11 1288 l1 1322 -4440 0 -4440 0 0 -1780z m4240 460
c12 -8 11 -10 -7 -10 -13 0 -23 5 -23 10 0 13 11 13 30 0z m-745 -40 c8 -13
-5 -13 -25 0 -13 8 -13 10 2 10 9 0 20 -4 23 -10z m865 -77 c14 -17 0 -16 -22
1 -10 7 -18 22 -18 32 1 18 1 18 15 -1 8 -11 19 -26 25 -32z m-937 -10 c-7 -2
-21 -2 -30 0 -10 3 -4 5 12 5 17 0 24 -2 18 -5z m102 -33 c7 -12 -2 -12 -30 0
-19 8 -19 9 2 9 12 1 25 -3 28 -9z m-205 -106 c0 -2 -9 0 -20 6 -11 6 -20 13
-20 16 0 2 9 0 20 -6 11 -6 20 -13 20 -16z m2067 -26 c-3 -8 -6 -5 -6 6 -1 11
2 17 5 13 3 -3 4 -12 1 -19z m103 -68 c0 -13 -1 -13 -10 0 -5 8 -10 22 -10 30
0 13 1 13 10 0 5 -8 10 -22 10 -30z m67 -72 c-3 -8 -6 -5 -6 6 -1 11 2 17 5
13 3 -3 4 -12 1 -19z m-2790 -40 c-16 -10 -44 -10 -51 0 -2 4 11 8 30 8 20 0
29 -3 21 -8z m-660 -474 c-3 -3 -12 -4 -19 -1 -8 3 -5 6 6 6 11 1 17 -2 13 -5z
m-1057 -226 c0 -16 -3 -19 -11 -11 -6 6 -8 16 -5 22 11 17 16 13 16 -11z
m-370 -938 c0 -5 -5 -10 -11 -10 -5 0 -7 5 -4 10 3 6 8 10 11 10 2 0 4 -4 4
-10z"/>
<path d="M4788 10297 c-3 -19 -2 -25 4 -19 6 6 8 18 6 28 -3 14 -5 12 -10 -9z"/>
<path d="M4445 10239 c1 -10 4 -22 8 -25 4 -4 7 -17 7 -29 0 -33 24 -50 41
-28 12 15 12 16 -5 10 -14 -5 -17 -3 -13 8 4 8 2 28 -4 44 -12 34 -36 49 -34
20z"/>
<path d="M4757 10224 c-9 -9 4 -35 14 -28 5 3 9 12 9 20 0 14 -12 19 -23 8z"/>
<path d="M4730 10186 c0 -2 8 -10 18 -17 15 -13 16 -12 3 4 -13 16 -21 21 -21
13z"/>
<path d="M5245 10160 c-3 -5 1 -10 9 -10 9 0 16 5 16 10 0 6 -4 10 -9 10 -6 0
-13 -4 -16 -10z"/>
<path d="M4520 10141 c0 -5 5 -13 10 -16 6 -3 10 -2 10 4 0 5 -4 13 -10 16 -5
3 -10 2 -10 -4z"/>
<path d="M5302 10126 c-6 -13 -8 -26 -5 -29 10 -11 33 6 33 23 0 29 -16 32
-28 6z"/>
<path d="M5255 10120 c-3 -5 -1 -10 4 -10 6 0 11 5 11 10 0 6 -2 10 -4 10 -3
0 -8 -4 -11 -10z"/>
<path d="M5313 10083 c-18 -7 -16 -43 2 -43 9 0 15 9 15 25 0 14 -1 25 -2 24
-2 0 -9 -3 -15 -6z"/>
<path d="M5248 10059 c-28 -16 -21 -30 7 -17 14 6 25 15 25 20 0 11 -11 10
-32 -3z"/>
<path d="M2528 9973 c7 -3 16 -2 19 1 4 3 -2 6 -13 5 -11 0 -14 -3 -6 -6z"/>
<path d="M2465 9810 c-3 -5 1 -10 9 -10 9 0 16 5 16 10 0 6 -4 10 -9 10 -6 0
-13 -4 -16 -10z"/>
<path d="M2315 9780 c-3 -6 1 -7 9 -4 18 7 21 14 7 14 -6 0 -13 -4 -16 -10z"/>
<path d="M2282 9673 c-15 -6 3 -33 22 -33 18 0 66 24 66 33 0 4 -9 3 -19 -3
-25 -13 -64 -13 -56 0 7 11 6 11 -13 3z"/>
<path d="M2204 9628 c-4 -7 -3 -8 4 -4 7 4 12 3 12 -3 0 -5 -6 -12 -12 -14 -7
-3 -1 -6 13 -6 14 -1 29 2 33 7 4 4 13 7 19 7 5 0 12 6 15 13 5 16 -74 17 -84
0z"/>
<path d="M1780 9536 c0 -2 7 -7 16 -10 8 -3 12 -2 9 4 -6 10 -25 14 -25 6z"/>
<path d="M1830 9512 c0 -5 16 -17 35 -26 19 -9 37 -21 40 -26 3 -6 11 -10 18
-10 15 0 -9 21 -55 49 -21 13 -38 18 -38 13z"/>
<path d="M6320 9511 c0 -4 18 -22 40 -40 28 -23 45 -29 55 -23 13 7 9 12 -20
27 -19 11 -35 22 -35 26 0 4 -9 9 -20 12 -11 3 -20 2 -20 -2z"/>
<path d="M2155 9483 c-19 -10 -25 -18 -16 -21 7 -2 23 5 34 17 25 25 22 26
-18 4z"/>
<path d="M1255 9140 c3 -5 19 -10 36 -10 16 0 29 5 29 10 0 6 -16 10 -36 10
-21 0 -33 -4 -29 -10z"/>
<path d="M8863 9092 c-7 -30 -13 -62 -13 -73 0 -10 -4 -19 -10 -19 -5 0 -10
-7 -10 -15 0 -29 -90 -195 -120 -222 -17 -14 -30 -32 -30 -39 0 -7 -24 -41
-52 -75 -96 -112 -119 -143 -143 -196 -14 -28 -33 -59 -42 -68 -16 -16 -16
-18 3 -32 13 -11 15 -17 6 -20 -6 -3 -10 -9 -6 -14 3 -5 0 -9 -5 -9 -6 0 -11
4 -11 10 0 12 -52 -7 -62 -23 -12 -20 15 -27 82 -20 l65 6 -24 -27 c-17 -18
-20 -26 -10 -26 9 -1 7 -6 -8 -19 -30 -25 -32 -52 -6 -84 12 -16 23 -31 25
-35 2 -4 26 -18 53 -31 58 -27 115 -63 115 -72 0 -4 -9 -9 -21 -12 -30 -8 -20
-29 24 -50 20 -10 37 -23 37 -28 0 -13 168 -84 177 -75 2 1 2 299 1 662 -3
553 -5 650 -15 606z"/>
<path d="M990 8590 c0 -5 4 -10 9 -10 6 0 13 5 16 10 3 6 -1 10 -9 10 -9 0
-16 -4 -16 -10z"/>
<path d="M1057 8563 c-4 -3 -7 -11 -7 -17 0 -6 5 -5 12 2 6 6 9 14 7 17 -3 3
-9 2 -12 -2z"/>
<path d="M3006 8471 c-4 -5 2 -16 11 -23 10 -7 24 -25 30 -40 13 -29 33 -38
33 -15 0 8 4 7 10 -3 9 -13 11 -13 19 0 7 10 6 20 -3 30 -7 8 -16 23 -19 33
-4 9 -15 17 -26 17 -11 0 -26 3 -34 6 -8 3 -18 1 -21 -5z"/>
<path d="M2755 8450 c-3 -5 0 -10 8 -10 8 0 21 -7 28 -17 8 -9 33 -25 56 -35
23 -10 45 -23 48 -28 3 -6 11 -10 16 -10 5 0 2 11 -7 25 -9 14 -20 25 -25 25
-5 0 -31 14 -57 30 -54 33 -58 34 -67 20z"/>
<path d="M5410 8419 c0 -5 5 -7 10 -4 6 3 10 8 10 11 0 2 -4 4 -10 4 -5 0 -10
-5 -10 -11z"/>
<path d="M2580 8401 c14 -11 27 -15 29 -10 4 13 2 15 -29 23 l-25 7 25 -20z"/>
<path d="M5112 8398 c-14 -14 -16 -28 -2 -28 5 0 14 9 20 20 12 22 1 27 -18 8z"/>
<path d="M2630 8390 c0 -5 11 -17 24 -25 13 -9 27 -23 30 -31 5 -12 1 -12 -24
1 -16 8 -34 15 -41 15 -6 0 -17 7 -23 15 -9 12 -20 12 -61 3 l-50 -11 65 -24
c36 -13 71 -26 79 -29 33 -11 0 -13 -50 -2 -30 6 -70 11 -89 11 -27 -1 -30 1
-15 7 17 6 14 9 -18 15 -21 4 -41 5 -44 1 -4 -3 1 -6 10 -6 9 0 17 -4 17 -10
0 -5 -6 -10 -14 -10 -25 0 -11 -35 15 -36 13 -1 43 -2 67 -3 58 -2 53 -21 -5
-22 -36 0 -43 -3 -28 -9 19 -8 19 -9 -2 -9 -13 -1 -23 5 -23 12 0 17 -98 22
-120 7 -11 -8 2 -10 48 -8 60 3 79 -3 46 -16 -9 -3 -35 -6 -59 -6 -24 0 -47
-4 -50 -10 -6 -9 22 -15 53 -11 6 1 12 -2 12 -7 0 -5 -28 -19 -62 -32 -33 -12
-75 -31 -92 -42 l-31 -19 30 7 c17 4 38 11 47 15 21 11 38 11 38 1 0 -5 -16
-14 -35 -22 -19 -8 -34 -19 -33 -26 3 -13 -47 -64 -63 -64 -6 0 -9 -12 -7 -27
2 -22 -3 -31 -22 -40 -19 -8 -20 -12 -7 -12 29 -2 19 -16 -25 -39 l-43 -21 33
-7 c17 -4 32 -10 32 -15 0 -5 -15 -10 -32 -10 -24 -1 -27 -3 -10 -6 27 -5 29
-23 2 -23 -14 0 -20 -7 -20 -24 0 -13 -7 -29 -15 -36 -8 -7 -28 -36 -43 -65
-25 -45 -26 -52 -10 -42 16 10 22 9 34 -7 14 -19 14 -19 14 1 0 12 5 25 10 28
6 4 10 -6 10 -24 0 -37 -9 -62 -21 -55 -12 7 -11 -3 2 -27 9 -17 6 -21 -20
-30 -29 -10 -43 -29 -21 -29 6 0 10 -7 10 -15 0 -8 -6 -15 -13 -15 -16 0 -87
-66 -87 -80 0 -6 14 -10 30 -10 17 0 30 -4 30 -10 0 -16 37 -11 44 6 4 10 13
13 27 9 20 -7 21 -4 17 30 -4 33 -2 36 16 31 12 -3 25 -6 29 -6 5 0 5 -5 1
-12 -5 -7 -2 -9 9 -5 8 3 32 9 51 13 20 3 36 10 36 15 0 5 11 9 24 9 37 0 83
23 78 39 -3 10 1 12 16 9 16 -4 20 -1 19 13 -1 20 -17 25 -33 10 -5 -4 -25
-11 -44 -14 l-35 -6 30 16 c17 9 25 18 18 20 -16 6 2 43 21 43 7 0 19 11 26
25 15 28 32 42 110 91 52 32 54 34 25 34 l-30 0 30 16 c52 26 52 34 2 34 -26
0 -47 5 -47 10 0 6 14 10 30 10 17 0 30 4 30 9 0 5 29 12 65 16 36 3 65 10 65
13 0 9 97 8 106 -1 14 -13 26 -7 15 7 -6 8 -31 17 -54 20 -63 10 -82 26 -30
26 23 0 43 4 45 10 2 6 15 3 33 -6 17 -9 48 -17 70 -19 22 -1 47 -5 55 -9 24
-9 109 -13 104 -4 -3 4 -16 8 -30 8 -13 0 -24 4 -24 8 0 4 17 6 38 4 l37 -5
-20 24 -20 23 27 -17 c31 -19 42 -22 33 -7 -3 6 -1 10 4 10 6 0 11 -4 11 -10
0 -18 20 -11 21 8 0 10 3 12 6 5 8 -20 31 -15 38 8 5 14 0 31 -14 50 -12 15
-21 33 -21 39 0 7 -10 21 -22 31 -22 19 -22 20 -3 17 11 -2 27 -17 35 -35 8
-18 21 -33 28 -33 6 0 11 -3 11 -7 -3 -16 14 -74 23 -79 5 -4 15 -1 21 5 8 8
4 24 -13 61 -13 27 -27 50 -32 50 -5 0 -7 4 -4 9 3 4 -6 19 -19 31 -24 23 -36
58 -15 45 18 -11 -2 29 -29 58 -31 34 -75 59 -86 49 -5 -4 -5 1 -2 10 6 17
-33 58 -55 58 -15 0 -96 39 -103 49 -3 5 -18 12 -35 16 -16 3 -47 15 -69 26
-46 22 -51 23 -51 9z m-30 -130 c0 -5 -2 -10 -4 -10 -3 0 -8 5 -11 10 -3 6 -1
10 4 10 6 0 11 -4 11 -10z m-482 -726 c7 4 12 2 12 -3 0 -6 -11 -11 -25 -11
-19 0 -25 5 -25 22 0 21 1 21 13 3 8 -10 19 -15 25 -11z m65 -71 c-7 -2 -21
-2 -30 0 -10 3 -4 5 12 5 17 0 24 -2 18 -5z"/>
<path d="M5505 8380 c-3 -5 1 -10 9 -10 9 0 16 5 16 10 0 6 -4 10 -9 10 -6 0
-13 -4 -16 -10z"/>
<path d="M5347 8338 c-13 -24 -28 -54 -32 -68 -8 -25 -7 -25 13 -6 22 19 59
103 50 112 -3 3 -17 -14 -31 -38z"/>
<path d="M5489 8333 c-1 -5 -1 -12 0 -17 1 -4 -9 -6 -22 -2 -25 6 -48 -12 -60
-47 -7 -18 -13 -21 -59 -31 -23 -5 -27 -11 -24 -35 2 -15 6 -33 9 -39 4 -5 0
-23 -9 -38 l-16 -29 5 43 c9 80 -14 28 -27 -60 -1 -3 -5 -10 -10 -15 -5 -4 -7
17 -4 52 3 33 3 53 1 44 -2 -10 -13 -19 -24 -22 -18 -5 -20 -11 -14 -39 4 -18
10 -37 13 -43 4 -5 5 -20 3 -32 -1 -13 3 -23 9 -23 8 0 10 -8 5 -22 -4 -13 -7
-30 -7 -39 1 -12 -5 -15 -20 -11 -12 3 -15 7 -9 12 7 3 9 14 5 23 -7 20 -20
22 -27 5 -2 -7 -20 -13 -38 -13 -23 1 -41 -7 -56 -23 -26 -26 -32 -52 -8 -32
12 10 15 9 15 -5 0 -13 4 -15 13 -8 6 6 24 13 40 17 26 6 27 6 10 -14 -10 -11
-25 -20 -35 -20 -12 0 -15 -5 -11 -16 3 -8 11 -13 18 -10 8 3 16 -2 19 -10 4
-10 13 -13 25 -9 12 3 21 0 25 -10 3 -10 19 -15 46 -15 31 0 40 -4 40 -17 0
-11 9 -4 25 20 31 45 36 46 25 5 l-10 -33 20 25 20 25 0 -23 c0 -20 2 -22 23
-11 12 7 27 19 34 28 6 9 14 13 17 10 4 -3 -18 -30 -49 -59 -54 -54 -64 -71
-28 -52 15 9 22 6 32 -11 11 -18 11 -20 0 -9 -22 20 -30 14 -27 -20 3 -32 4
-33 48 -31 l45 3 -40 -19 c-45 -22 -38 -26 19 -10 34 9 40 8 53 -10 8 -12 25
-21 40 -21 21 0 24 -2 13 -15 -9 -10 -9 -15 -1 -15 6 0 11 -7 11 -15 0 -18
-16 -20 -24 -2 -3 6 -3 2 0 -10 4 -19 1 -23 -17 -23 -45 0 3 -17 56 -20 18 -1
17 -2 -5 -15 l-25 -13 26 -7 c22 -5 26 -12 25 -37 -1 -38 4 -40 253 -90 29 -6
49 -13 43 -17 -5 -3 3 -17 19 -32 16 -14 32 -23 36 -20 4 3 2 -1 -4 -9 -10
-13 -4 -19 40 -35 l52 -19 -40 -7 c-22 -3 -33 -7 -26 -8 11 -1 12 -4 4 -12 -7
-7 -17 -8 -29 -1 -11 5 -28 6 -39 2 -17 -7 -15 -9 15 -18 28 -8 30 -10 11 -11
-38 -2 -7 -28 42 -36 23 -4 50 -14 59 -22 10 -9 49 -18 95 -23 43 -4 65 -8 48
-9 -28 -1 -69 -19 -52 -22 4 -1 12 -3 17 -4 6 -1 16 -3 24 -4 8 0 21 -7 28
-14 19 -18 66 -37 93 -37 13 0 25 -5 27 -11 2 -6 14 -8 32 -3 28 7 28 7 8 18
-31 17 -30 28 3 32 22 2 26 1 15 -6 -9 -6 -10 -10 -3 -10 24 0 42 12 36 26 -8
22 7 17 34 -12 13 -14 30 -24 37 -21 7 3 51 9 97 13 56 5 77 9 63 15 -12 4
-31 27 -43 51 -18 37 -19 44 -6 54 12 9 9 17 -24 53 -36 39 -38 44 -28 71 11
28 8 33 -33 77 -50 53 -76 93 -60 93 5 0 16 -12 24 -27 15 -28 86 -91 86 -76
0 4 -17 27 -39 51 -21 23 -36 42 -32 42 4 0 12 -5 19 -12 6 -6 15 -9 18 -5 6
6 -17 30 -61 62 -17 12 -18 16 -5 24 12 9 11 14 -8 40 -15 20 -18 31 -10 31 7
0 2 9 -11 19 -13 10 -33 16 -45 14 -14 -3 -36 8 -64 33 -24 20 -41 39 -38 42
3 2 1 13 -5 23 -11 22 -35 25 -42 7 -3 -7 -6 -3 -6 9 -1 16 -6 21 -16 17 -8
-4 -15 -2 -15 4 0 23 43 18 97 -11 l56 -30 -19 26 c-18 25 -93 57 -135 57 -22
0 -93 30 -86 36 3 3 14 1 24 -5 11 -5 50 -15 86 -21 49 -9 83 -23 125 -51 31
-21 63 -39 71 -39 22 0 -36 56 -73 71 -35 14 -116 67 -131 85 -12 15 -97 44
-128 44 -12 0 -29 5 -37 10 -12 8 -12 10 5 10 16 0 17 2 6 9 -8 5 -46 10 -84
10 -38 0 -72 3 -75 6 -6 5 65 7 187 5 49 -1 71 2 66 9 -3 6 -21 11 -39 11 -39
0 -50 8 -35 27 15 17 1 16 -31 -2 -30 -17 -40 -18 -40 -5 0 6 6 10 14 10 7 0
27 7 42 15 28 14 26 15 -54 15 -72 0 -93 -4 -149 -30 -96 -44 -102 -31 -8 16
44 21 81 42 83 46 2 4 20 10 40 13 80 13 132 27 132 36 0 6 -25 7 -62 3 -120
-12 -199 -33 -253 -65 l-40 -24 25 32 c14 17 32 30 40 30 14 -1 74 33 68 38
-2 2 -28 -2 -58 -7 -30 -6 -74 -11 -97 -12 -34 -1 -49 -8 -84 -41 -23 -22 -37
-31 -31 -21 7 14 6 23 -3 33 -19 18 -19 18 -45 -31 -12 -25 -30 -48 -38 -51
-13 -5 -13 -3 1 13 25 28 20 37 -10 17 -23 -16 -25 -16 -20 -1 4 9 1 16 -5 16
-7 0 -6 5 2 15 14 17 35 21 25 5 -11 -18 10 -10 36 14 25 23 56 82 47 91 -2 2
-14 2 -25 -1 -16 -5 -23 -15 -25 -41 -3 -31 -7 -36 -30 -39 -32 -3 -36 9 -10
28 10 7 22 19 27 27 6 11 3 13 -12 9 -15 -4 -20 -1 -19 11 1 10 -7 16 -21 15
-14 0 -23 5 -23 14 0 12 -3 12 -15 2 -8 -7 -15 -18 -15 -24 0 -6 -12 -19 -26
-30 l-26 -19 7 24 c4 13 21 44 37 68 20 28 27 45 20 50 -8 4 -3 16 13 33 14
15 25 31 25 37 0 5 5 11 12 13 6 2 8 10 4 16 -8 13 -25 16 -27 5z m-31 -40
c-22 -47 -33 -63 -41 -63 -6 0 -3 8 5 18 8 9 18 25 21 35 4 9 9 17 12 17 4 0
5 -3 3 -7z m62 -159 c0 -12 -55 -93 -63 -94 -4 0 -3 9 3 20 8 14 8 20 0 20 -6
0 -13 -7 -16 -15 -4 -8 -13 -15 -21 -15 -8 0 -11 -4 -8 -10 3 -5 1 -10 -4 -10
-6 0 -11 4 -11 10 0 14 71 80 87 80 7 0 13 5 13 10 0 6 5 10 10 10 6 0 10 -3
10 -6z m-126 -78 c-3 -9 -11 -16 -16 -16 -6 0 -7 7 -4 16 3 9 6 23 6 32 1 16
1 16 10 0 6 -9 7 -23 4 -32z m-14 -48 c0 -6 -10 -22 -22 -35 -12 -13 -21 -35
-20 -53 0 -16 -4 -30 -9 -30 -5 0 -9 9 -9 19 0 11 -9 23 -22 27 l-23 8 25 5
c15 4 31 19 40 38 15 32 40 45 40 21z m282 -35 c-20 -17 -33 -39 -34 -55 -1
-15 -5 -25 -9 -22 -4 2 -5 14 -1 26 l5 22 -28 -22 c-41 -32 -55 -27 -19 8 35
32 93 70 109 70 5 0 -5 -12 -23 -27z m-367 7 c3 -5 1 -10 -4 -10 -6 0 -11 5
-11 10 0 6 2 10 4 10 3 0 8 -4 11 -10z m449 -45 c-28 -22 -40 -18 -13 4 13 11
26 17 28 15 3 -2 -4 -11 -15 -19z m231 15 c-11 -5 -29 -8 -40 -8 -16 0 -15 2
5 8 34 11 60 11 35 0z m-511 -72 c-11 -13 -28 -24 -39 -26 -15 -3 -12 4 15 26
40 34 51 34 24 0z m97 -21 c-13 -12 -20 -15 -16 -7 14 26 28 41 33 35 3 -3 -5
-16 -17 -28z m462 26 c-7 -2 -19 -2 -25 0 -7 3 -2 5 12 5 14 0 19 -2 13 -5z
m-648 -23 c3 -5 -1 -10 -9 -10 -8 0 -18 5 -21 10 -3 6 1 10 9 10 8 0 18 -4 21
-10z m652 -46 c-3 -3 -12 -4 -19 -1 -8 3 -5 6 6 6 11 1 17 -2 13 -5z m73 -14
c8 -5 11 -10 5 -10 -5 0 -17 5 -25 10 -8 5 -10 10 -5 10 6 0 17 -5 25 -10z
m95 -90 c3 -6 -1 -7 -9 -4 -18 7 -21 14 -7 14 6 0 13 -4 16 -10z m-395 -215
c0 -19 -4 -35 -10 -35 -5 0 -9 5 -7 11 2 9 -11 20 -42 36 -11 6 14 23 35 23
21 0 24 -5 24 -35z m660 -17 c0 -13 -9 -9 -40 14 -42 30 -38 43 5 16 19 -13
35 -26 35 -30z m-520 -1 c0 -20 -5 -24 -30 -25 -16 0 -32 3 -35 9 -4 5 2 6 12
2 10 -3 15 -3 11 1 -8 10 13 35 30 36 6 0 12 -11 12 -23z m530 -49 c0 -13 -23
-5 -28 10 -2 7 2 10 12 6 9 -3 16 -11 16 -16z m-55 -338 c3 -5 1 -10 -4 -10
-6 0 -11 5 -11 10 0 6 2 10 4 10 3 0 8 -4 11 -10z m60 1 c-3 -6 3 -14 12 -20
16 -9 15 -10 -7 -11 -24 -1 -24 -1 5 -15 39 -17 29 -17 -85 4 l-95 17 73 6
c40 3 79 11 85 17 13 13 20 14 12 2z m99 -70 c10 -16 -21 -20 -41 -6 -17 13
-16 14 9 15 15 0 29 -4 32 -9z"/>
<path d="M5377 8273 c-4 -3 -7 -11 -7 -17 0 -6 5 -5 12 2 6 6 9 14 7 17 -3 3
-9 2 -12 -2z"/>
<path d="M5256 8251 c-4 -7 -5 -15 -2 -18 9 -9 19 4 14 18 -4 11 -6 11 -12 0z"/>
<path d="M5546 8212 c-3 -5 1 -9 9 -9 8 0 15 4 15 9 0 4 -4 8 -9 8 -6 0 -12
-4 -15 -8z"/>
<path d="M5790 8180 c-13 -11 -19 -20 -14 -20 13 1 61 40 48 40 -6 0 -21 -9
-34 -20z"/>
<path d="M5605 8170 c-18 -8 -17 -9 8 -9 15 -1 27 4 27 9 0 12 -8 12 -35 0z"/>
<path d="M5675 8159 c-4 -6 -5 -12 -2 -15 2 -3 7 2 10 11 7 17 1 20 -8 4z"/>
<path d="M5795 8141 c-3 -5 -2 -12 3 -15 5 -3 9 1 9 9 0 17 -3 19 -12 6z"/>
<path d="M5636 8105 c-4 -11 1 -15 19 -15 28 0 33 15 9 24 -21 8 -21 8 -28 -9z"/>
<path d="M5746 8105 c-7 -19 3 -19 28 0 19 15 19 15 -1 15 -11 0 -23 -7 -27
-15z"/>
<path d="M5077 8103 c-18 -17 -5 -42 23 -48 23 -5 29 -11 25 -24 -3 -10 3 -21
16 -29 12 -8 18 -9 14 -3 -3 6 -2 11 4 11 6 0 17 -12 25 -27 11 -20 15 -23 16
-10 0 9 5 17 10 17 14 0 -17 32 -52 55 -16 9 -28 24 -28 33 0 8 -3 12 -7 9 -3
-4 -14 0 -23 8 -9 8 -20 12 -23 8z"/>
<path d="M5030 8040 c0 -5 9 -10 21 -10 11 0 17 5 14 10 -3 6 -13 10 -21 10
-8 0 -14 -4 -14 -10z"/>
<path d="M8115 8020 c3 -5 19 -10 35 -10 16 0 32 5 35 10 4 6 -10 10 -35 10
-25 0 -39 -4 -35 -10z"/>
<path d="M2080 7919 c0 -5 5 -7 10 -4 6 3 10 8 10 11 0 2 -4 4 -10 4 -5 0 -10
-5 -10 -11z"/>
<path d="M3070 7891 c0 -6 -7 -11 -15 -11 -8 0 -15 -7 -15 -15 0 -8 8 -15 18
-15 10 0 23 -5 30 -12 9 -9 15 -9 23 -1 7 7 3 18 -15 38 -14 15 -26 23 -26 16z"/>
<path d="M3138 7865 c2 -14 6 -25 8 -25 2 0 4 11 4 25 0 14 -4 25 -9 25 -4 0
-6 -11 -3 -25z"/>
<path d="M7846 7873 c-3 -3 -3 -10 0 -14 7 -12 34 -11 34 0 0 11 -26 22 -34
14z"/>
<path d="M7720 7854 c0 -9 10 -14 30 -14 17 0 30 2 30 4 0 2 -13 9 -30 15 -24
8 -30 7 -30 -5z"/>
<path d="M7560 7844 c0 -4 6 -15 14 -23 12 -14 12 -18 0 -29 -9 -8 -14 -9 -14
-2 0 6 -4 8 -10 5 -17 -11 -11 -25 16 -35 14 -6 28 -19 31 -29 3 -12 17 -21
39 -25 18 -4 48 -13 66 -21 l33 -14 -27 -1 c-16 0 -28 -2 -28 -5 0 -12 35 -44
40 -36 3 4 22 6 43 3 27 -3 37 -8 33 -18 -4 -11 13 -14 92 -14 66 0 92 3 82
10 -12 8 -10 10 10 10 14 0 31 -4 39 -9 16 -10 41 -4 41 10 0 4 -19 17 -42 28
-32 15 -36 19 -15 14 27 -5 28 -4 16 15 -15 24 -65 36 -113 27 -22 -5 -44 -1
-65 10 -17 8 -36 13 -42 10 -5 -4 -17 -1 -25 6 -8 6 -18 9 -22 5 -4 -4 2 -14
12 -22 11 -7 17 -17 13 -20 -3 -3 -26 8 -51 26 -25 17 -46 28 -46 24 0 -3 -7
-1 -15 6 -10 8 -12 17 -6 24 12 15 -14 51 -29 41 -7 -4 -25 2 -41 14 -16 12
-29 18 -29 15z m70 -74 c0 -5 -5 -10 -11 -10 -5 0 -7 5 -4 10 3 6 8 10 11 10
2 0 4 -4 4 -10z"/>
<path d="M7704 7781 c17 -17 34 -31 39 -31 14 0 -23 39 -48 52 -14 8 -12 2 9
-21z"/>
<path d="M7760 7794 c0 -22 42 -33 120 -33 l85 0 -40 19 c-22 9 -44 14 -49 10
-4 -5 -22 -4 -39 1 -37 10 -77 12 -77 3z"/>
<path d="M5255 7780 c17 -6 13 -9 -20 -14 -74 -13 -85 -16 -85 -27 0 -5 15
-16 33 -24 28 -12 34 -12 43 1 6 7 16 14 21 14 13 0 43 34 43 48 0 7 -12 12
-27 11 -25 0 -25 -1 -8 -9z"/>
<path d="M8186 7772 c8 -8 148 -32 182 -32 26 0 10 28 -19 34 -47 9 -175 7
-163 -2z"/>
<path d="M8145 7740 c3 -5 11 -10 16 -10 6 0 7 5 4 10 -3 6 -11 10 -16 10 -6
0 -7 -4 -4 -10z"/>
<path d="M4606 7647 c-47 -46 -86 -90 -86 -97 0 -7 26 12 58 43 31 31 76 70
100 87 23 16 42 35 42 40 0 26 -35 3 -114 -73z"/>
<path d="M8200 7721 c0 -12 147 -72 190 -78 26 -3 12 7 -60 41 -93 44 -130 55
-130 37z"/>
<path d="M5090 7710 c0 -12 10 -16 64 -24 34 -4 37 -3 25 8 -19 18 -89 31 -89
16z"/>
<path d="M8770 7700 l25 -20 -30 10 -30 10 25 -20 c14 -12 46 -36 73 -55 l47
-35 0 39 c0 38 -2 40 -56 65 -67 31 -88 33 -54 6z"/>
<path d="M3935 7688 c-4 -9 -3 -22 1 -29 4 -8 3 -9 -4 -5 -7 4 -12 2 -12 -3 0
-6 7 -11 15 -11 8 0 15 -9 15 -20 0 -11 7 -20 15 -20 8 0 15 -8 15 -17 1 -19
27 -59 34 -52 2 2 -5 22 -16 44 -11 22 -28 60 -38 85 -14 34 -20 41 -25 28z"/>
<path d="M4987 7668 c-9 -6 -8 -10 1 -17 11 -7 10 -9 -3 -14 -9 -4 -13 -3 -10
3 14 23 -28 8 -55 -20 -16 -16 -36 -30 -45 -30 -8 0 -15 -4 -15 -10 0 -5 17
-10 38 -10 42 0 139 28 107 30 -29 3 53 28 93 29 38 1 47 31 9 31 -13 0 -27 3
-30 6 -9 10 -77 10 -90 2z"/>
<path d="M4528 7627 c-20 -24 -60 -73 -89 -111 -44 -58 -48 -67 -28 -61 13 4
24 8 24 9 8 24 48 87 73 115 44 48 75 91 65 90 -4 0 -25 -19 -45 -42z"/>
<path d="M5148 7663 c7 -3 16 -2 19 1 4 3 -2 6 -13 5 -11 0 -14 -3 -6 -6z"/>
<path d="M4053 7614 c-7 -16 -9 -33 -4 -41 6 -11 11 -4 18 26 12 46 4 54 -14
15z"/>
<path d="M6340 7630 c0 -5 5 -10 11 -10 7 0 18 -8 25 -17 7 -10 15 -15 19 -11
9 8 -26 48 -42 48 -7 0 -13 -4 -13 -10z"/>
<path d="M6410 7606 c0 -2 7 -7 16 -10 8 -3 12 -2 9 4 -6 10 -25 14 -25 6z"/>
<path d="M1972 7580 c0 -14 2 -19 5 -12 2 6 2 18 0 25 -3 6 -5 1 -5 -13z"/>
<path d="M3480 7583 c0 -15 2 -15 9 -4 5 8 16 11 25 8 9 -4 16 -2 16 3 0 6
-11 10 -25 10 -17 0 -25 -5 -25 -17z"/>
<path d="M4618 7593 c7 -3 16 -2 19 1 4 3 -2 6 -13 5 -11 0 -14 -3 -6 -6z"/>
<path d="M7684 7583 c19 -23 19 -23 0 -23 -11 0 -25 5 -32 12 -21 21 -13 -2
13 -36 28 -36 31 -52 13 -58 -10 -4 -10 -13 -2 -40 l11 -36 -48 49 c-36 36
-51 46 -55 35 -3 -8 2 -26 12 -41 13 -20 14 -29 6 -34 -15 -9 26 -76 46 -76 7
0 24 -11 38 -24 20 -19 27 -22 34 -11 6 10 10 8 19 -7 6 -12 21 -23 33 -27 13
-3 39 -20 58 -37 19 -17 44 -35 55 -41 55 -25 81 -47 130 -108 l20 -25 -22 19
c-13 11 -23 15 -23 10 0 -5 11 -16 23 -25 22 -16 23 -16 24 4 1 12 -5 29 -14
39 -14 16 -14 18 1 24 19 7 21 30 4 38 -7 3 1 3 17 1 17 -3 25 -3 19 0 -19 10
-104 95 -89 89 30 -12 14 6 -22 25 -24 13 -31 20 -20 21 10 0 38 -12 63 -26
24 -14 44 -22 44 -17 0 12 -55 53 -71 53 -6 0 -8 7 -5 17 4 10 4 15 1 11 -4
-3 -16 3 -27 14 -16 16 -19 25 -11 38 13 20 -13 40 -52 40 -20 0 -25 5 -25 26
0 24 3 26 28 19 15 -4 47 -9 71 -12 53 -6 54 15 0 34 -31 11 -32 12 -9 14 14
1 30 0 35 -1 6 -1 19 -4 29 -6 11 -2 22 -7 25 -12 7 -11 82 -37 94 -34 5 2 23
-7 42 -18 42 -26 55 -26 26 1 -16 15 -19 24 -11 34 8 9 7 14 -4 18 -8 3 -16 1
-18 -5 -3 -7 -18 -1 -40 15 -19 15 -47 27 -63 27 -15 0 -53 6 -84 14 -31 8
-83 18 -116 21 -33 4 -69 9 -80 11 -16 4 -17 3 -5 -5 13 -9 13 -11 -1 -11 -9
0 -23 -8 -32 -18 -16 -18 -15 -19 9 -32 28 -15 41 -36 55 -82 l8 -30 -23 24
c-33 32 -89 126 -82 136 3 5 -4 18 -17 28 l-22 19 19 -22z m204 -268 c2 -2 -1
-6 -6 -9 -5 -3 -18 4 -28 16 -19 21 -19 21 6 8 14 -7 26 -14 28 -15z"/>
<path d="M4688 7583 c6 -2 18 -2 25 0 6 3 1 5 -13 5 -14 0 -19 -2 -12 -5z"/>
<path d="M4576 7554 c-18 -25 -18 -25 3 -12 11 7 23 18 25 25 9 22 -8 14 -28
-13z"/>
<path d="M8790 7559 c0 -11 -4 -17 -10 -14 -5 3 -10 -3 -10 -14 0 -11 9 -22
21 -26 11 -4 36 -20 55 -37 l34 -30 0 34 c0 26 -9 42 -38 71 -43 42 -52 45
-52 16z"/>
<path d="M3521 7554 c0 -11 3 -14 6 -6 3 7 2 16 -1 19 -3 4 -6 -2 -5 -13z"/>
<path d="M8285 7550 c3 -5 11 -10 17 -10 7 0 21 -8 32 -19 25 -22 66 -36 66
-22 0 5 -24 21 -54 35 -60 28 -70 31 -61 16z"/>
<path d="M4705 7520 c-3 -5 1 -10 9 -10 8 0 18 5 21 10 3 6 -1 10 -9 10 -8 0
-18 -4 -21 -10z"/>
<path d="M2553 7513 c9 -2 25 -2 35 0 9 3 1 5 -18 5 -19 0 -27 -2 -17 -5z"/>
<path d="M4910 7509 c0 -5 5 -7 10 -4 6 3 10 8 10 11 0 2 -4 4 -10 4 -5 0 -10
-5 -10 -11z"/>
<path d="M7650 7511 c0 -6 5 -13 10 -16 6 -3 10 1 10 9 0 9 -4 16 -10 16 -5 0
-10 -4 -10 -9z"/>
<path d="M4650 7500 c-8 -5 -10 -10 -5 -10 6 0 17 5 25 10 8 5 11 10 5 10 -5
0 -17 -5 -25 -10z"/>
<path d="M3040 7490 c0 -5 7 -10 16 -10 8 0 12 5 9 10 -3 6 -10 10 -16 10 -5
0 -9 -4 -9 -10z"/>
<path d="M4876 7475 c4 -8 8 -15 11 -15 2 0 11 7 19 15 14 13 13 15 -10 15
-18 0 -24 -4 -20 -15z"/>
<path d="M4572 7464 c4 -21 22 -23 26 -1 2 10 -3 17 -13 17 -10 0 -15 -6 -13
-16z"/>
<path d="M2690 7451 c8 -5 26 -12 40 -16 24 -7 24 -7 5 9 -11 8 -29 15 -40 15
-16 0 -17 -1 -5 -8z"/>
<path d="M4959 7437 c-48 -12 -93 -28 -102 -35 -9 -7 -25 -10 -40 -7 -16 4
-30 1 -40 -10 -9 -9 -21 -14 -26 -11 -5 3 -23 3 -40 0 -38 -8 -43 -43 -8 -67
19 -14 20 -18 7 -27 -12 -9 -9 -10 13 -6 15 4 26 3 25 -1 -6 -32 44 -60 55
-30 3 7 6 5 6 -5 1 -13 -7 -18 -26 -19 l-28 -1 30 -7 c21 -4 31 -13 33 -29 4
-26 0 -27 -39 -6 -17 8 -33 13 -36 11 -8 -8 33 -27 79 -37 24 -5 66 -15 93
-23 l50 -15 -47 -1 c-26 -1 -49 -5 -52 -10 -3 -5 -22 -12 -42 -16 -33 -6 -35
-7 -18 -20 15 -11 22 -11 38 1 30 21 54 17 58 -8 3 -20 9 -23 50 -23 26 1 42
-3 35 -7 -13 -8 -11 -9 18 -27 l20 -13 -20 7 c-13 4 -17 3 -10 -4 13 -13 85 9
85 26 0 6 -9 15 -21 18 -15 5 -18 10 -10 18 8 8 18 7 37 -4 21 -11 28 -11 31
-1 3 6 9 12 14 12 5 0 18 9 30 21 l21 21 -24 -7 c-19 -6 -17 -2 10 18 23 17
29 27 21 33 -18 11 -69 13 -69 3 0 -13 -34 -11 -48 3 -22 22 -12 47 28 73 22
14 40 32 40 40 0 8 8 15 19 15 10 0 24 7 31 15 10 13 9 15 -12 15 -13 0 -29
-5 -36 -12 -17 -17 -28 -2 -12 17 7 8 23 15 36 15 18 0 24 6 24 21 0 18 -4 20
-27 14 -61 -15 -177 -34 -182 -29 -2 1 10 6 25 9 16 4 49 17 74 30 25 12 57
25 73 29 38 9 34 26 -5 21 -102 -13 -128 -14 -128 -6 0 5 15 11 33 15 25 5 29
9 17 16 -18 12 -6 13 -111 -13z m43 -29 c-8 -8 -17 -8 -34 0 -22 10 -21 11 12
11 26 1 31 -2 22 -11z m-21 -110 c45 -15 91 -47 84 -59 -10 -16 -30 -10 -40
13 -6 12 -24 26 -42 32 -17 6 -35 14 -39 19 -10 10 -3 9 37 -5z m-131 -38 c0
-5 -4 -10 -10 -10 -5 0 -10 5 -10 10 0 6 5 10 10 10 6 0 10 -4 10 -10z m270 0
c0 -5 -9 -10 -21 -10 -11 0 -17 5 -14 10 3 6 13 10 21 10 8 0 14 -4 14 -10z
m-170 -25 c-35 -26 -60 -32 -60 -16 0 5 10 11 23 13 12 2 21 9 20 16 -2 7 8
12 24 12 l27 0 -34 -25z m180 -155 c0 -5 -7 -10 -16 -10 -8 0 -12 5 -9 10 3 6
10 10 16 10 5 0 9 -4 9 -10z m-155 -20 c-28 -12 -55 -12 -55 0 0 6 17 10 38 9
30 0 33 -2 17 -9z"/>
<path d="M2303 7443 c9 -2 23 -2 30 0 6 3 -1 5 -18 5 -16 0 -22 -2 -12 -5z"/>
<path d="M3070 7441 c0 -10 50 -25 57 -18 2 3 -10 9 -26 15 -17 6 -31 7 -31 3z"/>
<path d="M7440 7433 c0 -9 8 -25 17 -36 10 -10 18 -26 18 -35 0 -8 6 -17 13
-20 18 -6 5 44 -20 81 -22 31 -28 33 -28 10z"/>
<path d="M2228 7427 c-45 -12 -49 -24 -10 -29 29 -4 29 -4 -51 -33 -27 -9 -47
-19 -45 -20 6 -6 102 16 132 30 26 12 27 13 10 24 -18 11 -18 11 0 26 22 17
17 17 -36 2z"/>
<path d="M7405 7430 c3 -5 8 -10 11 -10 2 0 4 5 4 10 0 6 -5 10 -11 10 -5 0
-7 -4 -4 -10z"/>
<path d="M2135 7395 l-30 -13 32 -1 c17 -1 34 3 38 8 10 17 -9 19 -40 6z"/>
<path d="M3760 7407 c-3 -3 -36 -7 -75 -10 -110 -8 -231 -55 -299 -116 -101
-92 -238 -339 -234 -423 1 -30 -4 -44 -27 -68 -19 -20 -24 -30 -14 -30 12 0
12 -2 -1 -10 -10 -6 -11 -10 -2 -10 21 0 13 -29 -13 -46 -14 -9 -25 -21 -25
-26 0 -5 -14 -21 -30 -35 -17 -14 -28 -28 -25 -31 3 -3 20 8 38 26 17 17 44
33 59 36 15 2 32 7 38 11 24 15 7 -13 -20 -33 -16 -13 -30 -29 -30 -36 0 -8
-9 -16 -19 -19 -11 -2 -27 -20 -37 -38 -15 -31 -15 -33 -1 -20 31 25 17 -2
-15 -31 -32 -28 -32 -29 -8 -24 l25 5 -25 -19 c-14 -11 -29 -20 -33 -20 -5 0
-6 -4 -2 -9 3 -6 -3 -15 -13 -20 -18 -9 -58 -61 -48 -61 3 0 19 13 37 30 18
16 36 27 41 24 12 -7 -18 -40 -54 -62 -16 -9 -28 -22 -28 -28 0 -7 -7 -15 -16
-18 -8 -3 -13 -10 -10 -15 8 -12 -31 -44 -44 -36 -7 4 -9 -1 -5 -18 4 -14 2
-28 -4 -31 -6 -4 -11 -2 -11 5 0 19 -16 0 -45 -54 -30 -57 -11 -59 21 -3 20
35 22 36 27 15 4 -13 3 -26 -1 -29 -5 -3 -16 -21 -25 -40 -10 -19 -26 -48 -37
-65 -22 -35 -24 -45 -10 -45 6 0 10 5 10 10 0 27 116 177 128 166 5 -5 -25
-63 -35 -68 -5 -3 -2 -3 5 -2 18 5 15 -5 -14 -38 -18 -23 -22 -34 -14 -42 8
-8 17 -5 31 13 10 12 16 27 13 33 -3 5 3 19 14 31 27 30 64 106 57 117 -3 6
-3 10 2 10 4 0 14 12 20 27 10 21 10 28 0 35 -9 6 -9 8 0 8 14 0 37 39 29 48
-4 3 -20 -8 -37 -24 -23 -21 -29 -24 -21 -9 6 12 22 27 36 34 14 8 32 31 40
53 20 49 20 51 -4 43 -32 -10 -23 2 20 26 32 18 39 27 34 43 -5 20 -5 19 11
-1 15 -22 15 -25 -8 -55 -39 -54 -42 -65 -8 -33 20 19 30 24 26 12 -4 -9 -11
-17 -16 -17 -10 0 -52 -78 -85 -157 -27 -65 -16 -60 36 17 22 33 50 65 63 71
25 14 27 16 -51 -75 -26 -31 -42 -58 -40 -70 2 -13 -2 -20 -9 -19 -7 2 -12 0
-11 -5 2 -4 -16 -33 -40 -64 -23 -31 -42 -66 -42 -77 0 -11 -5 -23 -10 -26 -6
-4 -8 -10 -5 -15 3 -4 -1 -13 -9 -19 -7 -6 -21 -29 -31 -51 -10 -22 -20 -38
-22 -36 -3 2 0 14 7 25 7 14 7 21 0 21 -6 0 -16 -11 -22 -25 -6 -14 -15 -25
-20 -25 -4 0 -8 -5 -8 -10 0 -6 -13 -25 -29 -43 -41 -45 -145 -208 -140 -219
3 -8 -36 -78 -44 -78 -4 0 -5 -9 -2 -20 4 -11 2 -20 -4 -20 -6 0 -11 -13 -11
-30 0 -16 -4 -30 -10 -30 -13 0 -13 56 0 79 13 26 23 188 10 175 -6 -6 -13
-35 -17 -65 -3 -30 -10 -63 -16 -74 -6 -11 -12 -42 -14 -70 -2 -29 -16 -75
-34 -111 -20 -41 -31 -79 -32 -112 -1 -28 -4 -49 -7 -49 -6 2 -10 -8 -10 -24
0 -8 14 -10 40 -6 22 3 43 1 46 -4 3 -5 2 -9 -3 -8 -20 4 -96 -4 -80 -8 17 -5
24 -23 8 -23 -5 0 -11 -9 -14 -20 -11 -44 -34 -13 -28 37 1 7 -8 13 -21 13
-44 0 -98 12 -92 21 3 5 3 9 0 9 -12 0 -56 -89 -56 -113 0 -14 -4 -29 -10 -32
-6 -3 -10 -11 -10 -18 0 -6 16 4 35 23 19 18 37 31 40 28 3 -3 -19 -29 -48
-59 -49 -49 -86 -99 -73 -99 23 0 132 36 185 60 36 17 87 41 113 53 26 12 48
25 48 29 0 12 61 68 74 68 7 0 33 17 57 38 24 22 71 51 104 65 71 30 129 46
69 18 -33 -15 -111 -65 -237 -152 -4 -3 -10 -15 -11 -25 -2 -11 -11 -18 -21
-17 -10 1 -30 -10 -44 -24 l-26 -25 30 7 c61 14 105 17 105 7 0 -5 -13 -12
-30 -15 -27 -6 -43 -27 -20 -27 6 0 10 -7 10 -15 0 -8 -9 -15 -20 -15 -11 0
-20 -4 -20 -10 0 -5 5 -10 10 -10 20 0 10 -29 -12 -35 -44 -13 -118 -105 -118
-146 0 -26 14 -24 30 5 7 14 18 23 24 22 6 -2 8 -1 4 1 -5 3 -8 10 -8 16 0 18
44 77 58 77 8 0 25 9 40 20 18 15 28 17 33 9 4 -7 14 -9 25 -4 11 5 23 7 28 6
5 -1 6 4 3 11 -2 8 4 24 14 37 18 22 19 22 19 3 0 -11 -16 -37 -35 -58 -39
-43 -41 -46 -20 -38 8 4 15 11 15 17 0 6 3 8 6 4 10 -9 76 49 104 92 18 27 50
66 50 60 0 -2 -6 -20 -13 -39 -12 -36 -24 -52 -64 -93 -12 -12 -23 -29 -25
-37 -2 -8 -10 -20 -18 -27 -8 -6 -12 -15 -8 -19 4 -4 27 15 50 41 55 62 167
172 209 208 53 43 60 31 12 -20 -24 -27 -43 -57 -43 -70 0 -14 -10 -27 -24
-35 -14 -7 -25 -16 -25 -20 -1 -5 -1 -12 -1 -18 0 -5 -6 -10 -13 -10 -8 0 -13
-13 -14 -35 -1 -20 -5 -41 -11 -48 -10 -13 -24 -77 -17 -77 4 0 31 55 40 80
17 49 112 197 130 204 8 3 15 13 15 22 0 10 5 14 14 11 8 -3 20 2 28 10 11 15
11 16 -6 10 -15 -6 -17 -5 -8 6 7 8 8 18 4 22 -4 5 -1 5 6 1 7 -4 19 -2 27 4
24 20 17 -2 -14 -43 -16 -21 -31 -34 -33 -28 -1 5 -16 -8 -31 -30 -25 -35 -26
-40 -11 -46 10 -4 20 0 26 11 17 30 72 86 85 86 7 0 12 6 11 13 -2 6 3 11 11
9 7 -1 21 3 30 10 9 7 -14 -19 -50 -57 -36 -39 -74 -84 -84 -102 -10 -18 -23
-29 -28 -26 -6 3 -7 1 -4 -4 4 -6 0 -16 -8 -23 -8 -7 -15 -22 -15 -34 1 -20 2
-19 25 7 13 15 30 27 37 27 7 0 18 10 23 22 6 13 21 28 35 35 14 6 39 30 55
52 17 22 35 41 41 41 7 0 26 16 43 36 17 19 36 32 41 29 5 -3 19 6 32 20 12
14 25 25 30 25 5 0 0 -10 -11 -22 -11 -11 -18 -26 -14 -31 3 -6 1 -7 -5 -3 -6
3 -13 -3 -17 -14 -3 -11 -11 -20 -16 -20 -6 0 -7 5 -4 10 3 6 1 10 -4 10 -6 0
-11 -11 -11 -25 0 -14 -6 -25 -12 -25 -7 0 -18 -11 -25 -25 -13 -28 2 -35 26
-12 20 19 -7 -31 -30 -57 -21 -21 -25 -46 -9 -46 6 0 10 5 10 11 0 6 11 24 25
41 14 16 25 39 25 51 0 12 23 46 51 77 47 51 44 44 -18 -42 -24 -33 -32 -61
-12 -41 6 6 17 9 25 6 7 -2 19 5 26 16 7 12 18 21 25 21 7 0 10 7 7 15 -4 10
0 15 10 15 22 0 10 -21 -49 -91 -29 -34 -41 -55 -33 -58 6 -2 17 4 23 14 17
30 89 101 82 81 -7 -19 -8 -19 41 1 21 9 13 -12 -21 -58 -39 -52 -79 -120 -74
-125 5 -5 65 80 109 154 36 60 38 76 8 50 -8 -7 -4 -1 9 15 14 15 31 27 38 27
7 0 29 24 47 53 34 51 72 97 82 97 3 0 -16 -29 -41 -65 -26 -35 -44 -69 -41
-74 4 -5 -5 -18 -19 -29 -14 -11 -25 -23 -25 -27 0 -3 -10 -21 -23 -38 -13
-18 -31 -50 -41 -72 l-18 -40 32 30 c18 17 45 48 61 69 30 40 42 38 13 -2 -8
-12 -13 -22 -10 -22 2 0 -6 -20 -20 -46 -28 -53 -28 -54 -9 -54 8 0 15 8 16
18 0 9 3 12 5 5 3 -6 -2 -25 -10 -42 -12 -22 -13 -30 -3 -34 9 -3 9 -10 -3
-33 -8 -16 -16 -32 -18 -36 -2 -5 1 -8 6 -8 4 0 18 20 30 44 24 46 62 89 49
53 -4 -11 -10 -30 -13 -43 -3 -13 -12 -24 -20 -24 -8 0 -14 -5 -14 -11 0 -5 5
-7 11 -3 7 4 10 1 7 -7 -3 -8 -10 -13 -15 -12 -6 1 -8 -9 -5 -23 l5 -25 18 28
c10 15 19 33 19 39 0 7 7 15 16 18 13 5 15 0 9 -36 -6 -40 -6 -42 9 -23 8 11
16 35 16 54 0 20 7 40 18 48 11 9 13 16 6 19 -15 6 7 130 26 147 10 10 11 7 6
-13 -4 -14 -9 -61 -12 -105 l-4 -80 24 60 c14 33 28 77 32 98 10 56 22 54 21
-4 -1 -29 -4 -43 -7 -33 -6 15 -8 13 -17 -13 -8 -22 -8 -34 0 -42 8 -8 6 -11
-6 -11 -23 0 -22 -21 2 -27 16 -4 17 -10 10 -41 -10 -44 -11 -68 -3 -59 8 8
46 148 46 168 0 9 6 34 13 55 l14 39 2 -70 c1 -38 4 -55 6 -37 4 31 7 33 31
27 15 -4 30 -11 33 -17 10 -15 16 1 24 65 8 66 16 70 17 8 0 -22 4 -38 9 -35
5 3 9 -2 9 -10 0 -9 -5 -16 -11 -16 -7 0 -9 -10 -6 -25 2 -14 2 -23 -1 -20 -7
7 -42 -102 -42 -130 1 -19 1 -19 11 -2 14 23 32 11 23 -16 -9 -29 -1 -21 25
26 13 23 21 57 22 90 1 51 1 51 9 14 10 -55 30 -71 31 -26 l2 34 7 -35 7 -35
11 25 c9 21 11 9 11 -67 1 -84 12 -120 24 -75 4 13 5 12 6 -5 1 -29 22 -73 34
-73 5 0 6 8 2 18 -10 25 -14 65 -7 76 3 6 11 -6 19 -25 l13 -34 -5 40 c-2 22
-6 56 -9 75 -5 34 -5 34 6 8 7 -16 15 -28 20 -28 4 0 8 -14 8 -31 0 -16 4 -28
9 -25 5 3 19 -13 30 -37 21 -40 23 -29 6 30 -3 10 2 2 11 -17 9 -19 23 -49 31
-65 7 -17 11 -39 7 -48 -4 -12 -1 -17 11 -17 14 0 16 7 13 40 -2 22 0 40 4 40
4 0 -2 21 -13 47 -11 25 -18 51 -15 57 3 7 5 6 5 -1 1 -14 41 -18 41 -5 0 4
-11 23 -25 42 -31 42 -32 49 -4 24 22 -19 22 -19 11 1 -6 11 -34 44 -62 74
-28 30 -49 59 -47 65 3 9 -50 96 -59 96 -2 0 2 -14 8 -31 14 -41 4 -48 -12 -7
-7 18 -20 53 -30 78 -10 25 -27 81 -39 125 -11 44 -24 91 -27 104 -5 17 -4 22
4 17 7 -4 12 -17 12 -29 0 -13 6 -31 13 -42 7 -11 19 -40 26 -65 17 -56 68
-160 80 -160 5 0 17 -13 28 -29 10 -15 51 -64 92 -107 41 -43 67 -68 58 -54
-10 14 -25 36 -34 50 -10 14 -39 49 -65 78 -26 29 -57 67 -69 85 l-22 32 33
-30 c29 -26 31 -27 17 -5 -10 13 -17 35 -17 49 0 13 -3 21 -7 18 -6 -7 -32 21
-33 35 -1 18 59 -30 85 -68 17 -24 33 -44 38 -44 4 0 7 -7 7 -15 0 -8 4 -15 9
-15 6 0 6 11 1 28 -22 75 -14 74 26 -7 38 -76 57 -91 52 -38 -2 18 -8 31 -15
30 -10 -2 -30 51 -25 69 1 4 -3 19 -8 34 -10 24 -9 26 5 14 10 -8 15 -23 12
-38 -6 -31 32 -71 46 -47 4 8 5 20 2 25 -3 6 -2 10 3 10 11 0 51 -47 69 -79
11 -23 13 -24 13 -5 0 11 -13 36 -30 54 -16 18 -30 37 -30 42 0 15 18 8 33
-14 l16 -23 0 22 c1 19 4 20 26 10 14 -7 25 -18 25 -24 0 -7 4 -13 9 -13 4 0
22 -13 39 -30 52 -49 57 -34 8 22 -25 29 -46 56 -46 60 0 15 15 6 40 -23 14
-16 36 -40 49 -52 13 -12 31 -31 40 -41 34 -41 76 -76 80 -65 2 6 -6 21 -18
33 -12 12 -21 26 -21 32 0 5 25 -18 56 -51 l55 -60 -43 83 c-24 46 -60 103
-81 125 -49 53 -72 94 -26 47 52 -54 132 -150 125 -150 -18 0 103 -139 184
-212 34 -31 22 1 -15 39 -41 42 -46 63 -10 39 35 -23 42 -20 16 8 -16 16 -29
22 -48 18 -17 -3 -24 -1 -19 6 4 6 13 9 21 5 18 -6 20 8 3 25 -19 19 1 14 33
-9 l29 -20 -4 23 c-2 13 -8 22 -14 21 -5 -1 -18 8 -29 20 -27 30 -76 117 -66
117 4 0 -11 18 -35 39 -31 28 -39 40 -29 44 9 3 33 -14 61 -44 26 -27 51 -47
56 -44 6 4 10 1 10 -5 0 -7 6 -10 14 -7 8 3 31 -13 55 -40 23 -26 44 -43 47
-40 4 3 -1 13 -10 22 -9 9 -16 20 -16 23 0 18 -53 63 -68 57 -9 -3 -14 -3 -10
0 3 4 -11 23 -33 42 -21 19 -39 40 -39 45 0 6 18 -6 40 -26 41 -37 63 -48 40
-21 -7 9 -11 18 -8 21 3 2 18 -12 34 -33 48 -63 121 -124 108 -90 -3 8 -16 20
-30 27 -13 7 -24 19 -24 25 0 7 -7 18 -15 25 -8 7 -15 20 -15 28 0 18 69 -45
70 -64 0 -29 151 -164 182 -164 9 0 21 -7 28 -15 24 -29 30 -15 8 18 -13 17
-26 34 -29 37 -63 53 -71 62 -61 69 9 5 -3 28 -38 75 -28 38 -49 71 -45 74 7
7 38 -26 55 -59 7 -13 19 -31 26 -39 54 -59 75 -87 80 -104 4 -11 22 -36 40
-56 19 -19 34 -40 34 -47 0 -7 6 -10 13 -7 8 3 20 -2 27 -11 11 -13 10 -14 -4
-9 -9 4 -16 1 -16 -6 0 -9 -7 -7 -25 4 -42 28 -17 -5 61 -78 41 -38 82 -70 92
-71 23 -1 50 -27 89 -85 33 -48 86 -100 103 -100 5 0 10 -4 10 -9 0 -4 12 -21
28 -37 15 -16 36 -43 47 -60 11 -18 47 -67 80 -109 47 -62 60 -74 65 -59 6 15
8 13 15 -11 12 -44 12 -44 14 -52 4 -20 19 -33 33 -28 15 6 14 11 -3 50 -10
24 -16 50 -13 59 3 9 1 16 -5 16 -6 0 -11 6 -11 13 0 6 -11 35 -24 62 l-24 50
-1 -44 c-1 -50 -7 -51 -16 -4 -3 18 -21 59 -40 91 -19 33 -39 72 -45 86 -5 15
-16 26 -22 25 -19 -3 -68 12 -68 21 0 4 -22 32 -50 61 -27 29 -50 58 -50 64 0
5 -9 16 -21 23 -12 7 -18 16 -15 19 3 4 -8 15 -25 25 -34 21 -34 37 0 19 18
-10 20 -9 14 6 -11 29 -32 45 -50 39 -12 -4 -34 8 -63 34 -25 22 -64 49 -88
61 -23 12 -40 24 -38 26 2 3 23 -5 46 -17 39 -20 41 -20 31 -2 -6 11 -8 22 -5
25 3 3 -1 4 -8 4 -7 -1 -31 17 -52 41 l-39 43 29 -7 c16 -4 31 -11 32 -16 2
-4 10 -8 18 -8 8 0 14 -6 14 -13 0 -8 9 -22 20 -32 11 -10 20 -22 20 -28 0 -5
20 -30 45 -55 25 -25 45 -42 45 -38 0 4 -36 52 -80 106 -44 54 -80 104 -80
110 0 7 -7 10 -15 6 -14 -5 -19 4 -16 31 1 6 -4 15 -10 19 -8 5 -10 3 -4 -7 4
-8 -8 2 -27 21 -46 47 -85 78 -133 108 -131 81 -302 247 -346 335 -17 32 -29
61 -26 63 2 2 18 -17 35 -44 34 -53 60 -81 121 -132 23 -19 50 -42 59 -51 9
-9 36 -26 59 -38 23 -11 79 -57 125 -101 45 -44 87 -80 92 -80 5 0 2 8 -7 18
-10 10 -17 24 -17 30 0 7 -4 12 -9 12 -5 0 -20 17 -32 38 -13 20 -32 46 -43
58 -34 33 -152 234 -139 234 3 0 22 -13 43 -30 21 -16 40 -30 44 -30 9 0 -5
30 -46 97 -21 34 -38 71 -38 80 -1 10 -14 43 -30 73 -17 30 -30 60 -31 65 0 6
-41 30 -90 55 -95 47 -120 72 -203 203 -28 45 -36 67 -35 100 3 80 -11 277
-23 324 -6 27 -25 73 -41 103 -29 54 -29 55 -4 30 15 -15 39 -65 58 -120 30
-87 33 -104 31 -205 -1 -60 3 -123 7 -140 5 -16 12 -43 16 -60 6 -26 8 -28 15
-10 6 16 8 14 14 -16 3 -19 14 -44 24 -55 9 -10 23 -31 31 -47 23 -44 159
-124 226 -132 11 -1 24 -3 28 -4 5 0 6 -5 3 -10 -3 -4 21 -17 54 -28 59 -19
71 -18 48 5 -7 7 -8 12 -4 12 5 0 -19 29 -53 65 -33 36 -61 71 -61 76 0 10
-60 86 -105 134 -11 12 -46 49 -78 83 -32 34 -60 62 -62 62 -2 0 -5 -6 -8 -12
-2 -7 -3 -5 -1 5 1 10 -6 26 -17 35 -20 18 -26 42 -9 42 6 0 10 -6 10 -12 0
-7 44 -58 96 -113 53 -55 87 -86 75 -68 -12 18 -26 35 -31 38 -6 4 -10 11 -10
18 0 6 15 -4 33 -22 19 -17 38 -31 43 -30 21 4 30 -3 42 -29 15 -35 70 -92 88
-92 8 0 14 -3 14 -7 0 -5 16 -26 36 -48 19 -22 31 -31 25 -19 -5 11 -17 26
-25 34 -9 7 -16 21 -16 32 0 19 1 19 20 -3 21 -26 26 -20 9 14 -9 19 -7 19 13
-3 13 -14 35 -32 50 -39 15 -8 25 -18 22 -23 -3 -4 5 -8 17 -8 22 0 22 0 3 22
-20 23 -10 19 39 -14 15 -11 27 -16 27 -12 0 4 9 -2 21 -15 12 -12 24 -20 27
-17 8 8 -37 54 -60 62 -10 3 -18 14 -18 24 0 9 -20 33 -45 51 -24 19 -42 40
-40 46 2 7 -9 20 -26 29 -17 8 -28 18 -25 21 3 3 17 -2 30 -11 41 -26 52 -18
21 14 -16 17 -30 37 -31 46 -4 23 -62 81 -88 88 -11 3 -31 20 -43 38 l-23 33
0 -42 c0 -24 6 -48 16 -57 8 -9 11 -16 6 -16 -11 0 -3 -91 9 -104 5 -6 9 -15
9 -20 -1 -6 -9 -1 -20 12 -10 13 -17 29 -14 36 8 20 -24 177 -41 202 -10 15
-11 24 -3 26 8 3 8 9 0 23 -31 55 -62 126 -53 120 14 -8 14 1 1 26 -7 12 -7
19 -1 19 14 0 23 -34 15 -55 -5 -12 -4 -16 4 -11 9 6 25 -23 27 -49 0 -5 14
-19 32 -30 18 -11 32 -24 33 -29 0 -6 -5 -5 -12 2 -17 17 -28 15 -28 -4 0 -18
52 -72 125 -129 50 -39 48 -35 -13 38 -18 21 -32 43 -32 49 0 17 46 -29 97
-97 25 -33 55 -66 67 -73 14 -9 15 -12 3 -8 -14 5 -16 2 -8 -13 14 -25 40 -45
49 -36 4 4 1 10 -5 12 -7 3 -13 9 -13 14 0 4 7 6 15 3 8 -4 15 -14 15 -23 0
-13 2 -14 9 -2 7 10 -2 25 -31 53 -22 21 -36 38 -31 39 4 0 -1 4 -12 9 -18 8
-18 9 -2 9 10 1 27 -3 37 -9 15 -8 17 -6 13 8 -3 12 -21 23 -49 30 -28 8 -44
17 -41 25 6 16 -19 66 -50 98 l-24 26 28 -4 c28 -4 27 -4 -6 15 l-34 19 34 7
34 8 -25 11 c-14 7 -36 20 -50 30 -21 15 -22 17 -6 17 15 0 11 7 -18 36 -26
26 -34 39 -26 44 15 9 4 30 -16 30 -8 0 -14 7 -14 15 0 8 -6 15 -13 15 -8 0
-22 8 -31 19 -15 17 -15 19 -1 25 22 8 27 8 21 -2 -2 -4 14 -25 36 -47 36 -37
41 -39 52 -22 15 19 38 22 65 8 19 -10 34 -3 39 17 1 9 -5 11 -23 6 -19 -5
-25 -2 -25 10 0 17 -25 12 -48 -11 -7 -7 -19 -13 -25 -13 -8 0 -7 3 2 9 18 11
4 34 -16 26 -13 -4 -14 -3 -3 10 11 13 9 15 -13 15 -14 0 -29 5 -32 10 -4 6
-16 8 -28 5 -20 -5 -20 -5 -4 6 13 8 22 8 29 1 8 -8 15 -6 26 4 8 8 11 18 8
22 -4 3 -10 1 -14 -5 -5 -8 -12 -9 -22 -2 -12 7 -11 10 8 15 33 9 27 27 -8 22
-30 -4 -42 6 -17 15 6 3 -3 8 -21 12 -19 5 -36 14 -39 22 -3 8 -12 12 -19 9
-8 -3 -13 0 -11 7 1 8 -18 12 -66 12 -56 0 -65 2 -50 13 9 6 29 12 45 12 31 0
41 29 11 31 -10 0 -35 8 -57 18 -37 16 -38 18 -22 34 10 9 14 17 10 17 -3 0 0
8 7 17 10 11 10 14 2 9 -9 -5 -13 1 -13 18 0 14 6 26 13 27 6 1 1 4 -13 8 -14
4 -26 12 -26 19 -1 7 -2 16 -3 21 0 5 -13 12 -27 15 -14 4 -24 12 -22 18 3 7
-14 28 -37 48 -23 20 -74 72 -113 117 -102 115 -229 193 -362 222 -25 6 -86
10 -137 10 -50 0 -102 3 -115 6 -13 3 -26 4 -28 2z m860 -691 c0 -2 -7 -7 -16
-10 -8 -3 -12 -2 -9 4 6 10 25 14 25 6z m58 -81 c19 -20 45 -62 59 -93 25 -58
46 -152 33 -152 -4 0 -10 22 -14 50 -9 64 -67 176 -114 219 -20 18 -28 29 -17
23 11 -5 35 -27 53 -47z m-1493 15 c-16 -16 -31 -27 -34 -24 -5 5 48 54 58 54
3 0 -8 -13 -24 -30z m-53 -62 c-7 -7 -12 -8 -12 -2 0 14 12 26 19 19 2 -3 -1
-11 -7 -17z m1678 -33 c0 -14 -2 -25 -4 -25 -2 0 -6 11 -8 25 -3 14 -1 25 3
25 5 0 9 -11 9 -25z m-1709 -8 c-10 -9 -11 -8 -5 6 3 10 9 15 12 12 3 -3 0
-11 -7 -18z m29 -11 c0 -2 -8 -10 -17 -17 -16 -13 -17 -12 -4 4 13 16 21 21
21 13z m1750 -46 c0 -5 -4 -10 -10 -10 -5 0 -10 5 -10 10 0 6 5 10 10 10 6 0
10 -4 10 -10z m-465 -141 c9 -17 15 -33 13 -35 -3 -2 -12 12 -21 31 -21 43
-13 47 8 4z m55 -141 c0 -41 -11 -29 -27 30 -17 66 -16 72 7 34 11 -18 20 -47
20 -64z m-1177 30 c-10 -18 -26 -44 -35 -57 -10 -13 -16 -27 -13 -31 3 -4 -2
-13 -10 -20 -12 -10 -13 -7 -6 18 5 16 16 41 25 56 9 14 23 38 32 52 23 37 29
22 7 -18z m1001 26 c3 -8 2 -12 -4 -9 -6 3 -10 10 -10 16 0 14 7 11 14 -7z
m-1366 -12 c-32 -46 -88 -104 -88 -93 0 6 21 34 46 61 48 51 65 64 42 32z
m198 -19 c-8 -16 -22 -37 -31 -48 -16 -19 -17 -19 -3 5 8 14 20 35 27 48 6 12
14 22 17 22 2 0 -2 -12 -10 -27z m43 -15 c-7 -12 -25 -40 -40 -61 -15 -21 -26
-44 -24 -50 3 -7 -9 -27 -25 -46 -17 -18 -30 -39 -30 -45 0 -6 -5 -4 -10 4 -5
8 -10 10 -10 5 0 -6 5 -16 11 -22 7 -7 3 -12 -15 -15 -34 -7 -33 7 2 40 16 15
31 34 35 42 10 20 45 78 80 129 29 44 46 56 26 19z m1171 -4 c0 -21 -17 -17
-23 5 -3 14 -1 18 9 14 8 -3 14 -11 14 -19z m34 -30 c5 -14 4 -15 -9 -4 -17
14 -19 20 -6 20 5 0 12 -7 15 -16z m46 -44 c0 -5 -5 -10 -11 -10 -5 0 -7 5 -4
10 3 6 8 10 11 10 2 0 4 -4 4 -10z m20 -47 c22 -44 24 -49 14 -38 -50 55 -57
65 -42 65 8 0 21 -12 28 -27z m-1300 -6 c0 -2 -17 -19 -37 -38 -34 -30 -35
-31 -13 -4 29 35 50 52 50 42z m1250 -72 c6 3 10 1 10 -6 0 -7 12 -28 28 -48
32 -43 73 -124 65 -131 -3 -3 -8 0 -10 7 -10 29 -66 103 -112 148 -28 28 -51
54 -51 59 0 5 -8 19 -17 30 -10 12 3 2 30 -22 26 -24 52 -40 57 -37z m636 44
c19 -22 19 -22 -3 -10 -24 12 -39 31 -25 31 5 0 17 -10 28 -21z m-449 -41 c-3
-7 -5 -2 -5 12 0 14 2 19 5 13 2 -7 2 -19 0 -25z m-67 -69 c0 -6 4 -8 9 -5 4
3 11 -17 14 -45 4 -28 11 -57 17 -64 7 -9 8 -15 1 -20 -6 -3 -13 7 -16 22 -3
15 -14 46 -24 68 -19 39 -41 102 -41 114 0 3 9 -9 20 -27 11 -18 20 -37 20
-43z m139 -38 c7 -11 9 -21 6 -21 -12 0 -35 70 -34 102 1 28 3 26 9 -13 4 -26
13 -56 19 -68z m-1534 89 c-3 -5 -12 -10 -18 -10 -7 0 -6 4 3 10 19 12 23 12
15 0z m51 -2 c4 -6 3 -8 -3 -5 -16 10 -24 -20 -12 -45 l10 -23 -5 23 c-3 17 2
26 19 34 34 15 87 -26 79 -62 -3 -17 -2 -21 5 -11 6 9 11 -6 16 -50 7 -58 6
-64 -15 -81 -12 -10 -17 -18 -11 -18 6 0 8 -6 6 -13 -7 -16 -85 -41 -97 -29
-15 15 -30 135 -24 191 6 46 4 52 -9 47 -13 -4 -11 1 5 24 24 34 26 35 36 18z
m-168 -73 c-12 -24 -25 -42 -29 -39 -11 6 24 84 38 84 9 0 6 -14 -9 -45z
m1297 11 c8 3 16 -4 20 -17 5 -14 10 -18 15 -10 10 17 28 -33 33 -95 7 -73 -3
-83 -47 -53 -38 25 -41 31 -51 112 -4 29 -2 47 4 47 6 0 9 6 7 13 -1 6 -1 9 1
5 2 -4 10 -5 18 -2z m681 -13 c20 -27 16 -38 -6 -18 -20 18 -26 35 -14 35 4 0
13 -8 20 -17z m129 -47 c28 -14 46 -26 42 -26 -21 0 -97 23 -97 31 0 4 -9 11
-20 14 -11 3 -20 10 -20 15 0 11 26 2 95 -34z m-867 -49 c-18 -36 -48 -49 -48
-22 0 8 9 15 20 15 11 0 20 5 20 10 0 6 -7 10 -15 10 -21 0 -19 38 3 42 23 5
35 -28 20 -55z m-641 13 c34 -31 41 -74 12 -76 -8 0 -22 -4 -31 -9 -10 -4 -24
-5 -32 -2 -8 3 -16 1 -18 -4 -2 -5 -12 -3 -23 5 -18 14 -18 15 -2 16 25 0 21
18 -5 22 -26 3 -29 23 -8 56 21 32 67 29 107 -8z m173 -9 c5 -11 7 -27 4 -35
-7 -19 -31 -21 -36 -4 -3 7 -11 9 -24 4 -17 -7 -16 -9 11 -20 l30 -13 -39 -6
c-46 -7 -56 -3 -56 24 0 10 -4 19 -10 19 -26 0 -6 28 28 37 58 16 80 15 92 -6z
m-850 -28 c-11 -17 -11 -17 -6 0 3 10 6 24 7 30 0 9 2 9 5 0 3 -7 0 -20 -6
-30z m969 15 c25 -12 48 -24 50 -25 2 -2 -1 -21 -8 -44 -9 -31 -15 -38 -25
-30 -7 6 -27 11 -44 13 -18 1 -32 6 -32 10 0 4 -6 8 -14 8 -17 0 -27 37 -19
68 7 28 33 28 92 0z m-489 -25 c48 -48 61 -82 31 -90 -12 -3 -21 -9 -21 -14 0
-5 -7 -9 -15 -9 -7 0 -18 -6 -22 -14 -5 -9 -15 -11 -28 -5 l-20 8 20 0 c17 1
15 4 -9 16 -15 8 -36 15 -45 16 -9 0 -11 3 -6 5 6 2 9 22 7 45 -5 45 17 79 50
79 10 0 36 -17 58 -37z m1169 -48 c1 -17 -1 -17 -9 -5 -5 8 -9 26 -9 40 0 23
1 23 9 5 5 -11 9 -29 9 -40z m-477 26 c6 -10 17 -17 23 -14 7 2 15 -6 19 -19
9 -37 7 -43 -10 -22 -14 18 -15 17 -11 -13 2 -21 -1 -33 -8 -33 -7 0 -33 -3
-59 -6 -38 -6 -46 -4 -46 9 0 8 6 17 13 20 7 2 8 8 3 13 -5 5 -11 4 -13 -3 -3
-7 -16 -13 -29 -13 -30 0 -31 21 -3 66 18 30 25 34 65 34 32 0 47 -5 56 -19z
m206 -20 c32 -29 38 -40 27 -45 -19 -7 -47 3 -39 15 3 5 1 9 -5 9 -5 0 -12 -6
-15 -12 -3 -9 -9 -7 -20 6 -9 11 -16 16 -16 12 0 -5 -7 -3 -15 4 -13 10 -12
15 8 31 12 10 24 18 27 18 3 0 24 -17 48 -38z m-1478 25 c0 -3 -4 -8 -10 -11
-5 -3 -10 -1 -10 4 0 6 5 11 10 11 6 0 10 -2 10 -4z m657 -12 c-3 -3 -12 -4
-19 -1 -8 3 -5 6 6 6 11 1 17 -2 13 -5z m1090 -86 c-3 -7 -5 -2 -5 12 0 14 2
19 5 13 2 -7 2 -19 0 -25z m383 22 c0 -5 -7 -7 -15 -4 -8 4 -15 8 -15 10 0 2
7 4 15 4 8 0 15 -4 15 -10z m-1040 -4 c0 -3 -4 -8 -10 -11 -5 -3 -10 -1 -10 4
0 6 5 11 10 11 6 0 10 -2 10 -4z m1087 -2 c-3 -3 -12 -4 -19 -1 -8 3 -5 6 6 6
11 1 17 -2 13 -5z m-420 -86 c-2 -13 -4 -5 -4 17 -1 22 1 32 4 23 2 -10 2 -28
0 -40z m280 -105 c8 -25 8 -33 0 -33 -7 0 -6 -5 3 -11 12 -8 12 -10 1 -7 -8 2
-16 14 -18 27 -1 12 -12 41 -23 64 l-20 42 22 -25 c13 -14 28 -40 35 -57z
m-108 24 c1 -5 -3 -5 -9 -2 -5 3 -10 16 -9 28 0 21 1 21 9 2 5 -11 9 -24 9
-28z m-2129 19 c0 -3 -4 -8 -10 -11 -5 -3 -10 -1 -10 4 0 6 5 11 10 11 6 0 10
-2 10 -4z m250 -100 c0 -2 -7 -7 -16 -10 -8 -3 -12 -2 -9 4 6 10 25 14 25 6z
m2017 -38 c-3 -8 -6 -5 -6 6 -1 11 2 17 5 13 3 -3 4 -12 1 -19z m-401 -22 c10
-8 17 -17 14 -19 -3 -3 -16 3 -30 13 -29 22 -14 27 16 6z m318 -21 c3 -8 1
-15 -4 -15 -6 0 -10 7 -10 15 0 8 2 15 4 15 2 0 6 -7 10 -15z m-254 -51 c0 -2
-9 0 -20 6 -11 6 -20 13 -20 16 0 2 9 0 20 -6 11 -6 20 -13 20 -16z m-104 -32
c-4 -3 -14 2 -24 12 -16 18 -16 18 6 6 13 -6 21 -14 18 -18z m454 13 c0 -8 -4
-15 -10 -15 -5 0 -7 7 -4 15 4 8 8 15 10 15 2 0 4 -7 4 -15z m-2160 -5 c-8 -5
-22 -9 -30 -9 -10 0 -8 3 5 9 27 12 43 12 25 0z m1780 -57 c0 -8 -38 17 -51
33 -9 11 -2 9 19 -6 17 -13 32 -25 32 -27z m-1855 -3 c-3 -5 -14 -10 -24 -10
-10 0 -24 -7 -31 -15 -7 -8 -17 -15 -23 -15 -5 0 1 8 14 19 35 27 76 41 64 21z
m2098 -33 c4 3 7 0 7 -8 0 -8 22 -39 50 -68 40 -44 47 -57 39 -73 -11 -21 -21
-25 -13 -5 4 12 -58 100 -99 142 -20 20 -23 32 -4 16 8 -6 17 -8 20 -4z m-28
-57 c26 -16 35 -29 35 -48 l0 -27 -18 25 c-9 14 -32 40 -49 59 -18 18 -33 38
-33 44 0 6 7 2 15 -10 8 -12 31 -31 50 -43z m-910 3 c-9 -37 -18 -20 -9 19 4
18 9 27 11 20 3 -7 2 -24 -2 -39z m-1265 26 c0 -12 -39 -17 -43 -5 -3 6 6 11
19 11 13 0 24 -3 24 -6z m540 -14 c-7 -9 -15 -13 -19 -10 -3 3 1 10 9 15 21
14 24 12 10 -5z m1485 5 c3 -6 -1 -7 -9 -4 -18 7 -21 14 -7 14 6 0 13 -4 16
-10z m-1368 -22 c-3 -8 -6 -5 -6 6 -1 11 2 17 5 13 3 -3 4 -12 1 -19z m-437
-13 c-7 -8 -17 -15 -22 -15 -6 0 -5 7 2 15 7 8 17 15 22 15 6 0 5 -7 -2 -15z
m290 6 c0 -5 -8 -11 -17 -15 -10 -3 -25 -9 -33 -12 -9 -4 -8 1 5 14 21 22 45
29 45 13z m1555 -2 c11 -16 1 -19 -13 -3 -7 8 -8 14 -3 14 5 0 13 -5 16 -11z
m-2262 -23 c-3 -16 -10 -23 -19 -19 -8 3 -14 8 -14 10 0 5 29 31 36 33 1 0 -1
-11 -3 -24z m460 -3 c-13 -9 -23 -19 -23 -24 0 -13 -81 -98 -105 -111 -19 -11
14 30 99 119 22 24 42 40 45 37 3 -4 -4 -13 -16 -21z m520 7 c-3 -11 -9 -20
-15 -20 -5 0 -4 9 2 20 6 11 12 20 14 20 2 0 2 -9 -1 -20z m77 10 c0 -5 -5
-10 -11 -10 -5 0 -7 5 -4 10 3 6 8 10 11 10 2 0 4 -4 4 -10z m1580 -62 c0 -15
-16 -8 -34 15 -10 12 -26 31 -35 41 -9 11 3 4 26 -15 24 -18 43 -37 43 -41z
m-2733 56 c-3 -3 -12 -4 -19 -1 -8 3 -5 6 6 6 11 1 17 -2 13 -5z m428 -4 c-3
-5 -12 -10 -18 -10 -7 0 -6 4 3 10 19 12 23 12 15 0z m-385 -17 c-69 -23 -73
-23 -60 -8 7 8 27 15 44 14 17 0 24 -3 16 -6z m2395 -13 c4 -6 -1 -7 -11 -3
-14 5 -16 3 -11 -11 4 -10 3 -15 -3 -11 -6 3 -10 13 -10 21 0 16 26 19 35 4z
m-1545 -15 c-7 -8 -9 -15 -4 -15 4 0 -9 -16 -31 -35 -54 -50 -58 -34 -5 20 43
44 65 60 40 30z m233 -18 c-15 -19 -29 -33 -30 -33 -1 1 0 11 3 23 5 17 31 38
52 42 2 1 -9 -14 -25 -32z m420 -2 c4 -8 2 -17 -3 -20 -6 -4 -10 3 -10 14 0
25 6 27 13 6z m991 -1 c4 -10 1 -14 -6 -12 -15 5 -23 28 -10 28 5 0 13 -7 16
-16z m-1984 -8 c0 -3 -4 -8 -10 -11 -5 -3 -10 -1 -10 4 0 6 5 11 10 11 6 0 10
-2 10 -4z m1470 -53 c0 -2 -13 3 -30 12 -16 9 -30 20 -30 26 0 5 14 0 30 -13
17 -12 30 -23 30 -25z m57 25 c-3 -8 -6 -5 -6 6 -1 11 2 17 5 13 3 -3 4 -12 1
-19z m-1706 -19 c-12 -12 -25 -19 -28 -16 -8 8 20 36 36 37 10 0 8 -7 -8 -21z
m1076 -1 c-3 -8 -6 -5 -6 6 -1 11 2 17 5 13 3 -3 4 -12 1 -19z m-1457 -3 c-14
-7 -27 -11 -30 -9 -6 7 22 24 40 23 9 0 5 -6 -10 -14z m1627 -7 c-3 -8 -6 -5
-6 6 -1 11 2 17 5 13 3 -3 4 -12 1 -19z m1118 -25 l38 -48 -41 40 c-36 33 -51
55 -39 55 1 0 20 -21 42 -47z m-279 6 c4 -8 1 -8 -14 0 -12 6 -24 16 -28 22
-4 8 -1 8 14 0 12 -6 24 -16 28 -22z m-1764 -1 c-7 -7 -12 -8 -12 -2 0 6 3 14
7 17 3 4 9 5 12 2 2 -3 -1 -11 -7 -17z m2183 12 c3 -5 2 -10 -4 -10 -5 0 -13
5 -16 10 -3 6 -2 10 4 10 5 0 13 -4 16 -10z m-1339 -47 c-3 -27 -5 -54 -5 -61
-1 -7 -6 -10 -11 -7 -15 9 0 115 16 115 2 0 2 -21 0 -47z m-1209 5 c-3 -7 -5
-2 -5 12 0 14 2 19 5 13 2 -7 2 -19 0 -25z m466 17 c-3 -9 -8 -14 -10 -11 -3
3 -2 9 2 15 9 16 15 13 8 -4z m1627 -28 c0 -6 6 -18 13 -26 24 -29 61 -95 49
-87 -14 8 -56 71 -84 125 -17 33 -17 33 3 16 10 -10 19 -23 19 -28z m-793 11
c-3 -8 -6 -5 -6 6 -1 11 2 17 5 13 3 -3 4 -12 1 -19z m-130 -20 c-3 -7 -5 -2
-5 12 0 14 2 19 5 13 2 -7 2 -19 0 -25z m793 -4 c0 -20 -7 -17 -20 6 -9 16 -8
18 5 14 8 -4 15 -12 15 -20z m480 -24 c0 -5 -2 -10 -4 -10 -3 0 -8 5 -11 10
-3 6 -1 10 4 10 6 0 11 -4 11 -10z m-265 -40 c10 -11 16 -20 13 -20 -3 0 -13
9 -23 20 -10 11 -16 20 -13 20 3 0 13 -9 23 -20z m-928 -142 c-3 -8 -6 -5 -6
6 -1 11 2 17 5 13 3 -3 4 -12 1 -19z m1464 -48 c19 -16 39 -30 46 -30 20 0 24
-17 6 -24 -10 -4 -14 -4 -11 0 4 4 -13 20 -37 36 -46 31 -63 48 -47 48 5 0 25
-13 43 -30z m219 -232 c0 -7 -7 -1 -17 12 -9 14 -23 34 -32 46 -9 11 -1 5 17
-13 17 -18 32 -38 32 -45z m270 -299 c0 -6 -4 -7 -10 -4 -5 3 -10 11 -10 16 0
6 5 7 10 4 6 -3 10 -11 10 -16z"/>
<path d="M4277 5913 c-10 -9 -8 -33 2 -33 5 0 11 9 14 20 5 20 -3 26 -16 13z"/>
<path d="M3808 5803 c7 -3 16 -2 19 1 4 3 -2 6 -13 5 -11 0 -14 -3 -6 -6z"/>
<path d="M3073 7383 c9 -2 25 -2 35 0 9 3 1 5 -18 5 -19 0 -27 -2 -17 -5z"/>
<path d="M4476 7372 c-2 -4 15 -7 40 -7 24 0 44 3 44 8 0 9 -77 9 -84 -1z"/>
<path d="M4608 7373 c6 -2 18 -2 25 0 6 3 1 5 -13 5 -14 0 -19 -2 -12 -5z"/>
<path d="M6550 7372 c0 -10 41 -45 46 -39 2 2 -7 13 -21 25 -14 12 -25 18 -25
14z"/>
<path d="M1925 7350 c3 -5 8 -10 11 -10 2 0 4 5 4 10 0 6 -5 10 -11 10 -5 0
-7 -4 -4 -10z"/>
<path d="M2058 7353 c-10 -2 -18 -9 -18 -14 0 -6 8 -5 20 1 11 6 20 13 20 15
0 3 -1 4 -2 4 -2 -1 -11 -3 -20 -6z"/>
<path d="M8695 7350 c3 -5 8 -10 11 -10 2 0 4 5 4 10 0 6 -5 10 -11 10 -5 0
-7 -4 -4 -10z"/>
<path d="M7430 7319 c0 -25 31 -67 45 -62 6 2 16 -6 23 -17 14 -22 3 -27 -17
-7 -8 6 -6 0 4 -16 10 -15 28 -30 41 -33 13 -3 24 -11 24 -18 0 -6 18 -23 39
-39 31 -21 41 -36 46 -67 4 -22 11 -42 16 -45 16 -10 37 -69 43 -120 5 -47 5
-49 -10 -30 -12 15 -18 17 -21 6 -4 -9 -12 -5 -29 15 -19 23 -16 13 12 -41 20
-38 44 -79 54 -90 32 -37 33 -50 1 -20 l-32 30 10 -30 c10 -28 10 -28 -4 -11
-8 11 -18 16 -22 13 -3 -4 3 -17 14 -30 11 -12 18 -28 16 -35 -3 -7 2 -21 10
-30 9 -9 15 -20 14 -23 -3 -10 63 -89 73 -89 6 0 10 7 10 16 0 8 4 13 9 10 4
-3 11 -32 14 -64 9 -83 57 -164 57 -95 0 50 11 15 16 -49 3 -36 13 -82 24
-104 11 -21 20 -44 20 -51 0 -21 21 -15 27 7 3 11 12 20 19 20 18 0 18 7 -5
90 -12 42 -17 84 -14 105 5 29 3 34 -9 30 -15 -6 -32 23 -43 70 -10 44 -32 96
-51 117 -34 38 -55 78 -48 89 3 6 2 21 -3 32 -14 31 -33 92 -32 103 0 5 13
-17 29 -49 24 -51 30 -56 39 -40 9 16 10 14 11 -12 0 -17 7 -40 15 -52 10 -14
13 -32 9 -48 -5 -19 -1 -30 12 -40 28 -21 40 -18 19 5 -20 22 -15 36 10 27 8
-4 15 -15 15 -25 0 -11 6 -25 13 -31 8 -6 20 -29 27 -50 7 -22 22 -49 34 -60
33 -31 48 -52 43 -58 -12 -11 47 -50 70 -45 23 4 31 18 13 24 -5 2 -11 12 -13
23 -6 36 -35 79 -96 144 -34 35 -61 69 -61 76 0 6 -9 20 -20 30 -11 10 -20 23
-20 30 0 7 -9 20 -19 29 -11 10 -22 29 -26 44 -4 15 -22 45 -40 68 -19 23 -36
52 -38 65 -2 13 -2 18 0 12 4 -12 23 -19 23 -8 0 9 -25 61 -38 80 -8 11 1 3
21 -17 21 -21 37 -46 37 -57 0 -10 7 -24 15 -31 8 -7 15 -19 15 -27 0 -8 28
-51 62 -96 68 -91 92 -117 108 -117 5 0 10 -4 10 -10 0 -5 5 -10 11 -10 16 0
-53 99 -176 248 -19 24 -35 48 -35 53 0 15 20 10 42 -11 28 -26 33 -19 13 20
-14 27 -18 30 -33 18 -9 -7 -13 -8 -9 -2 10 17 -75 134 -99 134 -9 0 -51 46
-65 72 -10 18 -13 19 -20 5 -12 -21 -7 -48 14 -80 14 -22 14 -25 2 -21 -18 7
-19 0 -3 -26 7 -10 9 -23 4 -27 -8 -8 -28 21 -32 47 -11 67 -95 213 -112 195
-4 -4 4 -14 17 -24 13 -10 21 -24 18 -32 -4 -10 -6 -8 -6 5 -1 12 -6 16 -16
12 -8 -3 -15 0 -15 6 0 25 -51 78 -76 78 -17 0 -24 5 -24 20 0 11 -4 20 -10
20 -5 0 -10 -9 -10 -21z m310 -389 c0 -5 -2 -10 -4 -10 -3 0 -8 5 -11 10 -3 6
-1 10 4 10 6 0 11 -4 11 -10z m30 -55 c0 -5 -5 -3 -10 5 -5 8 -10 20 -10 25 0
6 5 3 10 -5 5 -8 10 -19 10 -25z m0 -155 c0 -5 -4 -10 -10 -10 -5 0 -10 5 -10
10 0 6 5 10 10 10 6 0 10 -4 10 -10z m-20 -52 c0 -16 -20 -7 -30 12 -10 19
-10 20 9 8 12 -7 21 -16 21 -20z m120 -104 c0 -8 -4 -12 -10 -9 -5 3 -10 10
-10 16 0 5 5 9 10 9 6 0 10 -7 10 -16z m-3 -81 c-3 -10 -5 -4 -5 12 0 17 2 24
5 18 2 -7 2 -21 0 -30z"/>
<path d="M2088 7303 c6 -2 18 -2 25 0 6 3 1 5 -13 5 -14 0 -19 -2 -12 -5z"/>
<path d="M4600 7300 c20 -13 33 -13 25 0 -3 6 -14 10 -23 10 -15 0 -15 -2 -2
-10z"/>
<path d="M7650 7294 c1 -16 29 -60 29 -44 0 8 -6 24 -14 34 -8 11 -15 16 -15
10z"/>
<path d="M8850 7280 c6 -11 15 -20 20 -20 17 0 11 15 -11 28 -19 12 -19 11 -9
-8z"/>
<path d="M8800 7275 c0 -9 62 -75 71 -75 22 0 5 37 -26 58 -35 22 -45 26 -45
17z"/>
<path d="M7720 7260 c0 -19 42 -78 59 -85 22 -8 24 1 7 27 -9 14 -13 28 -9 31
3 4 0 7 -7 7 -7 0 -22 7 -32 17 -13 12 -18 13 -18 3z"/>
<path d="M5149 7234 c-7 -9 -22 -20 -34 -24 -13 -6 -15 -9 -5 -9 8 -1 29 10
45 24 17 13 25 24 19 25 -6 0 -18 -7 -25 -16z"/>
<path d="M7792 7220 c5 -12 89 -80 99 -80 5 0 9 4 9 8 0 11 -47 52 -60 52 -6
0 -10 4 -10 9 0 5 -9 11 -21 14 -11 3 -19 2 -17 -3z"/>
<path d="M8810 7221 c0 -6 5 -13 10 -16 6 -4 8 -10 5 -15 -3 -5 7 -18 22 -30
42 -33 43 0 2 39 -35 34 -39 36 -39 22z"/>
<path d="M5913 7202 c-18 -2 -33 -7 -33 -13 0 -10 23 -10 60 0 32 9 14 17 -27
13z"/>
<path d="M5070 7180 c0 -5 7 -7 15 -4 8 4 15 8 15 10 0 2 -7 4 -15 4 -8 0 -15
-4 -15 -10z"/>
<path d="M5250 7160 c0 -5 7 -7 15 -4 8 4 15 8 15 10 0 2 -7 4 -15 4 -8 0 -15
-4 -15 -10z"/>
<path d="M7510 7151 c0 -5 5 -13 10 -16 6 -3 10 -2 10 4 0 5 -4 13 -10 16 -5
3 -10 2 -10 -4z"/>
<path d="M2170 7140 c19 -13 30 -13 30 0 0 6 -10 10 -22 10 -19 0 -20 -2 -8
-10z"/>
<path d="M7907 7133 c-2 -4 10 -19 27 -32 l31 -25 -25 30 c-14 16 -26 30 -26
32 -1 2 -4 0 -7 -5z"/>
<path d="M8817 7121 c3 -10 18 -32 34 -47 26 -24 29 -25 28 -8 0 10 -15 31
-34 47 -28 23 -32 24 -28 8z"/>
<path d="M4761 7116 c12 -13 21 -14 40 -7 23 9 23 10 2 10 -12 1 -30 4 -40 7
-16 6 -17 5 -2 -10z"/>
<path d="M7812 7106 c10 -24 38 -44 38 -28 0 9 -38 52 -45 52 -3 0 0 -11 7
-24z"/>
<path d="M8040 7116 c0 -2 9 -6 20 -9 11 -3 20 -1 20 4 0 5 -9 9 -20 9 -11 0
-20 -2 -20 -4z"/>
<path d="M7535 7070 c16 -30 35 -40 35 -17 -1 17 -25 47 -39 47 -8 0 -7 -9 4
-30z"/>
<path d="M7596 7087 c3 -10 9 -15 12 -12 3 3 0 11 -7 18 -10 9 -11 8 -5 -6z"/>
<path d="M2628 7063 c7 -3 16 -2 19 1 4 3 -2 6 -13 5 -11 0 -14 -3 -6 -6z"/>
<path d="M4715 7020 c-3 -5 -1 -10 4 -10 6 0 11 5 11 10 0 6 -2 10 -4 10 -3 0
-8 -4 -11 -10z"/>
<path d="M2708 7013 c6 -2 18 -2 25 0 6 3 1 5 -13 5 -14 0 -19 -2 -12 -5z"/>
<path d="M7890 7005 c0 -15 68 -100 86 -108 7 -4 10 2 7 13 -6 24 -93 113 -93
95z"/>
<path d="M8855 6991 c18 -36 25 -39 25 -11 0 10 -9 24 -21 30 -20 11 -20 11
-4 -19z"/>
<path d="M4935 7000 c-18 -8 -17 -9 7 -9 15 -1 30 4 33 9 7 12 -12 12 -40 0z"/>
<path d="M7580 6970 c18 -35 55 -68 66 -58 8 8 -32 73 -44 71 -7 -2 -12 1 -12
6 0 5 -7 11 -15 15 -12 4 -11 -3 5 -34z"/>
<path d="M5055 6975 c-30 -14 -30 -14 -4 -15 14 0 34 7 45 15 25 19 1 19 -41
0z"/>
<path d="M6415 6980 c-18 -8 -17 -9 8 -9 15 -1 27 4 27 9 0 12 -8 12 -35 0z"/>
<path d="M4946 6963 c-27 -4 -28 -5 -8 -19 23 -16 49 -10 49 11 0 8 -3 14 -6
14 -3 -1 -19 -4 -35 -6z"/>
<path d="M6540 6960 c-11 -7 -5 -10 23 -10 23 0 36 4 32 10 -8 13 -35 13 -55
0z"/>
<path d="M6670 6960 c-9 -6 -10 -10 -3 -10 6 0 15 5 18 10 8 12 4 12 -15 0z"/>
<path d="M6498 6953 c7 -3 16 -2 19 1 4 3 -2 6 -13 5 -11 0 -14 -3 -6 -6z"/>
<path d="M5135 6940 c-11 -5 -37 -9 -58 -9 -23 -1 -36 -5 -32 -11 4 -6 -5 -10
-19 -10 -21 0 -26 -5 -26 -24 0 -20 -6 -25 -32 -28 -27 -3 -22 -5 24 -12 49
-7 65 -5 115 15 55 23 56 24 25 27 -18 2 -32 7 -32 12 0 9 63 30 92 30 9 0 20
5 23 10 8 12 -52 12 -80 0z"/>
<path d="M6409 6933 c-14 -3 -34 -42 -26 -49 1 -1 15 8 31 21 28 22 26 35 -5
28z"/>
<path d="M7960 6884 c0 -5 7 -19 15 -30 8 -10 15 -14 15 -8 0 5 -7 19 -15 30
-8 10 -15 14 -15 8z"/>
<path d="M6385 6830 c-3 -6 5 -10 19 -10 14 0 28 5 31 10 3 6 -5 10 -19 10
-14 0 -28 -4 -31 -10z"/>
<path d="M5030 6802 c0 -6 13 -10 28 -10 15 1 38 -5 51 -11 12 -7 25 -10 28
-7 6 6 -38 25 -79 33 -17 3 -28 1 -28 -5z"/>
<path d="M5175 6787 c13 -9 37 -12 65 -9 35 4 41 7 25 13 -11 4 -40 8 -65 8
-40 1 -43 0 -25 -12z"/>
<path d="M3065 6780 c-3 -5 -15 -10 -25 -10 -10 0 -22 -5 -26 -11 -4 -8 1 -9
17 -4 23 7 60 35 47 35 -4 0 -10 -4 -13 -10z"/>
<path d="M4880 6780 c0 -5 12 -10 26 -10 14 0 23 4 19 10 -3 6 -15 10 -26 10
-10 0 -19 -4 -19 -10z"/>
<path d="M8825 6773 c7 -18 12 -47 19 -108 2 -16 7 -38 11 -49 7 -16 6 -17
-13 -7 -17 9 -20 8 -17 -7 2 -9 4 -17 5 -17 1 0 3 -13 5 -30 1 -16 11 -48 21
-70 l19 -40 3 136 c2 125 1 140 -19 173 -21 37 -47 51 -34 19z"/>
<path d="M4765 6760 c-28 -4 -34 -7 -20 -11 23 -6 85 4 70 12 -5 3 -28 2 -50
-1z"/>
<path d="M4825 6720 c3 -5 12 -7 20 -3 21 7 19 13 -6 13 -11 0 -18 -4 -14 -10z"/>
<path d="M7820 6700 c0 -5 5 -10 10 -10 6 0 10 -7 10 -17 0 -9 3 -14 6 -10 8
8 -5 47 -17 47 -5 0 -9 -4 -9 -10z"/>
<path d="M2951 6671 c-8 -5 -10 -14 -6 -21 6 -9 10 -8 17 4 12 21 7 28 -11 17z"/>
<path d="M4960 6650 c0 -5 12 -10 26 -10 14 0 23 4 19 10 -3 6 -15 10 -26 10
-10 0 -19 -4 -19 -10z"/>
<path d="M5116 6650 c7 -7 19 -7 35 -1 23 9 22 10 -10 10 -24 1 -32 -2 -25 -9z"/>
<path d="M3095 6640 c-3 -6 1 -7 9 -4 18 7 21 14 7 14 -6 0 -13 -4 -16 -10z"/>
<path d="M2904 6625 c-17 -13 -17 -14 -2 -15 9 0 20 5 23 11 11 17 0 20 -21 4z"/>
<path d="M5055 6630 c-3 -5 3 -10 15 -10 12 0 18 5 15 10 -3 6 -10 10 -15 10
-5 0 -12 -4 -15 -10z"/>
<path d="M3063 6623 c-7 -3 -13 -11 -13 -18 0 -7 -6 -16 -12 -18 -7 -3 -8 -6
-2 -6 16 -1 47 25 43 36 -2 5 -10 8 -16 6z"/>
<path d="M4933 6605 c-17 -14 -17 -14 5 -15 12 0 25 0 29 -1 4 0 9 4 11 9 5
17 -25 21 -45 7z"/>
<path d="M5010 6616 c0 -2 7 -6 15 -10 8 -3 15 -1 15 4 0 6 -7 10 -15 10 -8 0
-15 -2 -15 -4z"/>
<path d="M2855 6590 c-16 -7 -17 -9 -3 -9 9 -1 20 4 23 9 7 11 7 11 -20 0z"/>
<path d="M2992 6527 c-18 -18 -32 -38 -32 -44 0 -6 -11 -18 -25 -27 -14 -9
-22 -22 -19 -30 3 -9 -3 -17 -15 -21 -12 -3 -21 -14 -21 -23 1 -19 89 75 90
94 0 7 11 19 25 28 25 17 52 56 37 56 -4 0 -22 -15 -40 -33z"/>
<path d="M2918 6494 c-16 -8 -28 -17 -28 -19 0 -10 16 -4 40 15 30 23 25 25
-12 4z"/>
<path d="M7751 6493 c-1 -6 4 -15 9 -18 6 -4 10 -14 9 -23 -1 -10 1 -25 6 -35
11 -27 25 -2 23 43 l-1 35 -7 -40 -7 -40 -2 38 c0 21 -5 36 -10 33 -5 -4 -12
0 -14 6 -4 9 -6 10 -6 1z"/>
<path d="M4954 6478 c-4 -6 -1 -16 7 -22 8 -6 23 -27 33 -46 11 -19 47 -60 80
-90 34 -30 52 -45 42 -32 -14 16 -16 22 -5 22 8 0 21 -4 29 -9 8 -6 18 -7 23
-4 13 8 -13 33 -35 33 -13 0 -18 5 -15 13 4 10 -1 13 -17 10 -25 -5 -75 32
-54 40 7 3 2 6 -11 6 -20 1 -22 4 -13 13 8 8 37 12 80 10 47 -1 63 1 52 8 -8
5 -43 10 -77 10 -34 0 -68 3 -77 6 -24 9 -19 32 7 37 16 3 14 5 -10 6 -17 0
-35 -4 -39 -11z"/>
<path d="M2864 6439 c-19 -22 -19 -22 4 -8 12 8 22 17 22 21 0 12 -6 9 -26
-13z"/>
<path d="M4930 6450 c0 -5 5 -10 10 -10 6 0 10 5 10 10 0 6 -4 10 -10 10 -5 0
-10 -4 -10 -10z"/>
<path d="M2680 6437 l-55 -11 40 -7 c22 -3 32 -7 23 -8 -10 0 -18 -6 -18 -11
0 -13 35 4 64 31 22 21 23 21 -54 6z"/>
<path d="M8844 6405 c4 -15 1 -29 -8 -37 -12 -11 -11 -20 6 -62 22 -57 19 -68
-11 -30 -16 20 -21 22 -21 10 0 -20 25 -71 52 -105 18 -24 19 -24 16 109 -3
120 -5 133 -21 136 -15 2 -18 -2 -13 -21z"/>
<path d="M5078 6393 c6 -2 18 -2 25 0 6 3 1 5 -13 5 -14 0 -19 -2 -12 -5z"/>
<path d="M8791 6364 c0 -11 3 -14 6 -6 3 7 2 16 -1 19 -3 4 -6 -2 -5 -13z"/>
<path d="M2565 6340 c-13 -5 -14 -9 -5 -9 8 0 24 4 35 9 13 5 14 9 5 9 -8 0
-24 -4 -35 -9z"/>
<path d="M2800 6319 c0 -5 5 -7 10 -4 6 3 10 8 10 11 0 2 -4 4 -10 4 -5 0 -10
-5 -10 -11z"/>
<path d="M5200 6305 c0 -8 4 -15 10 -15 5 0 7 7 4 15 -4 8 -8 15 -10 15 -2 0
-4 -7 -4 -15z"/>
<path d="M7850 6298 c0 -19 2 -20 10 -8 13 19 13 30 0 30 -5 0 -10 -10 -10
-22z"/>
<path d="M5020 6300 c0 -5 9 -10 21 -10 11 0 17 5 14 10 -3 6 -13 10 -21 10
-8 0 -14 -4 -14 -10z"/>
<path d="M2784 6266 c-10 -8 -17 -17 -14 -19 3 -3 16 3 29 14 27 22 15 26 -15
5z"/>
<path d="M5060 6276 c0 -2 7 -7 16 -10 8 -3 12 -2 9 4 -6 10 -25 14 -25 6z"/>
<path d="M5040 6246 c0 -2 7 -9 15 -16 12 -10 15 -10 15 4 0 9 -7 16 -15 16
-8 0 -15 -2 -15 -4z"/>
<path d="M2704 6216 c-9 -15 -14 -29 -12 -32 3 -2 13 7 22 22 10 14 15 28 13
31 -3 2 -13 -7 -23 -21z"/>
<path d="M2530 6210 c-10 -6 -2 -7 25 -3 49 7 58 13 19 13 -16 0 -36 -5 -44
-10z"/>
<path d="M2762 6190 c-9 -17 -22 -28 -29 -25 -7 2 -15 -1 -19 -7 -5 -7 -2 -8
6 -3 8 5 11 3 8 -6 -3 -8 -10 -13 -15 -12 -5 1 -10 -8 -10 -19 -1 -12 -8 -25
-15 -29 -7 -4 -10 -11 -6 -14 3 -4 14 5 25 20 10 14 27 38 39 53 26 33 47 72
39 72 -3 0 -14 -14 -23 -30z"/>
<path d="M7843 6205 c0 -8 4 -12 9 -9 5 3 6 10 3 15 -9 13 -12 11 -12 -6z"/>
<path d="M5070 6200 c0 -5 5 -10 11 -10 5 0 7 5 4 10 -3 6 -8 10 -11 10 -2 0
-4 -4 -4 -10z"/>
<path d="M8796 6180 c3 -14 15 -39 25 -56 11 -17 19 -35 19 -40 0 -9 -8 2 -56
75 l-22 32 0 -39 c-1 -29 6 -48 24 -69 42 -47 79 -106 85 -138 4 -16 7 24 8
90 0 66 -3 116 -7 110 -15 -21 -44 -9 -63 25 -15 26 -18 29 -13 10z"/>
<path d="M2545 6170 c-16 -7 -17 -9 -3 -9 9 -1 20 4 23 9 7 11 7 11 -20 0z"/>
<path d="M7968 6168 c-9 -7 -18 -22 -21 -33 -4 -15 -5 -13 -6 8 0 15 -6 27
-12 27 -18 0 -5 -55 14 -58 23 -5 57 25 57 50 0 21 -10 23 -32 6z"/>
<path d="M5150 6160 c0 -5 7 -10 16 -10 8 0 12 5 9 10 -3 6 -10 10 -16 10 -5
0 -9 -4 -9 -10z"/>
<path d="M2475 6145 c-16 -7 -23 -14 -14 -14 8 -1 24 6 35 14 24 18 18 18 -21
0z"/>
<path d="M5286 6146 c10 -8 21 -12 24 -10 5 6 -21 24 -34 24 -6 0 -1 -6 10
-14z"/>
<path d="M5176 6091 c-9 -14 29 -42 48 -35 9 3 16 11 16 16 0 6 -7 7 -15 4 -9
-3 -18 1 -21 9 -7 17 -20 20 -28 6z"/>
<path d="M5260 6073 c0 -4 5 -15 10 -23 8 -13 10 -13 10 2 0 9 -4 20 -10 23
-5 3 -10 3 -10 -2z"/>
<path d="M2818 6046 c-20 -15 -23 -26 -8 -26 5 0 14 9 20 20 12 23 11 24 -12
6z"/>
<path d="M7960 6029 c0 -5 5 -7 10 -4 6 3 10 8 10 11 0 2 -4 4 -10 4 -5 0 -10
-5 -10 -11z"/>
<path d="M2782 5975 c-22 -28 -28 -45 -14 -45 12 1 44 50 40 62 -2 6 -14 -1
-26 -17z"/>
<path d="M5200 5993 c0 -5 12 -16 25 -26 27 -19 32 -12 11 16 -13 17 -36 24
-36 10z"/>
<path d="M2711 5974 c0 -11 3 -14 6 -6 3 7 2 16 -1 19 -3 4 -6 -2 -5 -13z"/>
<path d="M7956 5975 c-6 -16 14 -30 34 -23 7 2 4 11 -8 21 -17 16 -20 16 -26
2z"/>
<path d="M2635 5970 c-3 -5 -1 -10 4 -10 6 0 11 5 11 10 0 6 -2 10 -4 10 -3 0
-8 -4 -11 -10z"/>
<path d="M2730 5955 c-7 -9 -11 -17 -9 -20 3 -2 10 5 17 15 14 24 10 26 -8 5z"/>
<path d="M5287 5959 c7 -7 15 -10 18 -7 3 3 -2 9 -12 12 -14 6 -15 5 -6 -5z"/>
<path d="M2672 5948 c-16 -20 -100 -200 -108 -232 -4 -19 -3 -27 3 -23 6 4 14
19 18 34 4 16 22 59 41 97 19 39 34 76 34 83 0 7 4 13 9 13 9 0 24 30 18 37
-2 2 -9 -2 -15 -9z"/>
<path d="M5084 5941 c3 -5 15 -11 26 -14 17 -4 19 -3 9 9 -12 15 -44 20 -35 5z"/>
<path d="M2730 5896 c0 -14 -6 -31 -13 -38 -18 -19 -58 -98 -49 -98 4 0 16 17
27 38 11 20 27 45 37 55 19 19 25 67 8 67 -5 0 -10 -11 -10 -24z"/>
<path d="M7902 5900 c0 -14 2 -19 5 -12 2 6 2 18 0 25 -3 6 -5 1 -5 -13z"/>
<path d="M7992 5865 c0 -16 2 -22 5 -12 2 9 2 23 0 30 -3 6 -5 -1 -5 -18z"/>
<path d="M7930 5840 c0 -11 5 -20 10 -20 6 0 10 9 10 20 0 11 -4 20 -10 20 -5
0 -10 -9 -10 -20z"/>
<path d="M8710 5854 c0 -3 5 -15 11 -26 6 -12 15 -50 19 -85 6 -42 17 -78 34
-104 28 -42 17 -54 -16 -16 l-19 22 5 -35 c4 -18 11 -37 18 -41 6 -4 8 -19 6
-34 -3 -15 3 -50 14 -78 11 -29 24 -74 30 -102 8 -42 49 -125 62 -125 8 0 5
287 -3 323 -12 49 -18 55 -34 33 -11 -15 -14 -12 -29 31 -9 26 -20 59 -23 73
-7 24 -6 24 8 5 8 -11 17 -32 20 -46 4 -15 13 -29 21 -32 12 -5 13 -1 6 19
-24 62 -54 120 -66 127 -7 4 -22 28 -33 52 -17 40 -31 57 -31 39z m64 -120 c3
-8 2 -12 -4 -9 -6 3 -10 10 -10 16 0 14 7 11 14 -7z m78 -241 c3 -29 2 -53 -2
-53 -11 0 -29 78 -23 101 9 32 20 9 25 -48z"/>
<path d="M4940 5834 c0 -15 37 -61 43 -54 3 3 -6 19 -19 35 -13 17 -24 25 -24
19z"/>
<path d="M7902 5805 c0 -16 2 -22 5 -12 2 9 2 23 0 30 -3 6 -5 -1 -5 -18z"/>
<path d="M2316 5801 c-4 -5 3 -7 14 -4 23 6 26 13 6 13 -8 0 -17 -4 -20 -9z"/>
<path d="M7935 5770 c4 -19 3 -30 -4 -30 -6 0 -11 -9 -11 -20 0 -24 6 -25 26
-6 15 15 18 44 8 70 -11 28 -26 17 -19 -14z"/>
<path d="M4996 5758 c19 -32 57 -78 65 -78 5 0 -6 20 -23 45 -18 25 -36 45
-41 45 -4 0 -5 -6 -1 -12z"/>
<path d="M5068 5763 c7 -3 16 -2 19 1 4 3 -2 6 -13 5 -11 0 -14 -3 -6 -6z"/>
<path d="M5100 5755 c0 -2 10 -10 23 -16 20 -11 21 -11 8 4 -13 16 -31 23 -31
12z"/>
<path d="M5272 5748 c2 -6 15 -18 29 -27 l24 -15 -24 27 c-26 29 -35 34 -29
15z"/>
<path d="M5100 5706 c6 -15 27 -43 48 -62 29 -26 43 -33 64 -28 18 4 39 -3 67
-21 23 -14 41 -22 41 -18 -1 13 -88 73 -111 76 -12 2 -30 14 -40 26 -12 14
-20 18 -25 10 -4 -7 -15 -1 -30 17 l-24 29 10 -29z"/>
<path d="M2635 5706 c-24 -13 -35 -27 -35 -43 0 -21 13 -14 39 18 26 34 25 42
-4 25z"/>
<path d="M4860 5683 c0 -5 14 -33 32 -63 30 -52 32 -54 39 -30 6 23 7 22 8 -8
1 -34 34 -92 52 -92 5 0 0 16 -11 35 -11 20 -15 37 -10 40 6 3 17 -10 27 -29
9 -20 20 -36 25 -36 11 0 12 -3 -21 75 -27 64 -34 72 -78 92 -53 24 -63 27
-63 16z"/>
<path d="M5195 5680 c3 -5 11 -10 16 -10 6 0 7 5 4 10 -3 6 -11 10 -16 10 -6
0 -7 -4 -4 -10z"/>
<path d="M7905 5680 c-3 -5 -1 -10 4 -10 6 0 11 5 11 10 0 6 -2 10 -4 10 -3 0
-8 -4 -11 -10z"/>
<path d="M2584 5605 c-6 -19 -7 -35 -3 -35 10 0 23 44 17 60 -1 5 -8 -6 -14
-25z"/>
<path d="M5000 5633 c1 -5 17 -26 36 -48 20 -22 31 -30 24 -17 -18 37 5 25 35
-18 27 -38 55 -47 36 -11 -26 47 -132 124 -131 94z m50 -34 c0 -6 -4 -7 -10
-4 -5 3 -10 11 -10 16 0 6 5 7 10 4 6 -3 10 -11 10 -16z"/>
<path d="M5130 5580 c6 -11 13 -20 16 -20 2 0 0 9 -6 20 -6 11 -13 20 -16 20
-2 0 0 -9 6 -20z"/>
<path d="M7150 5589 c0 -5 5 -7 10 -4 6 3 10 8 10 11 0 2 -4 4 -10 4 -5 0 -10
-5 -10 -11z"/>
<path d="M8430 5531 c0 -22 5 -43 10 -46 6 -4 10 10 10 34 0 22 -4 43 -10 46
-6 4 -10 -10 -10 -34z"/>
<path d="M2350 5541 c0 -25 6 -27 13 -6 4 8 2 17 -3 20 -6 4 -10 -3 -10 -14z"/>
<path d="M5230 5535 c13 -14 26 -25 28 -25 3 0 -5 11 -18 25 -13 14 -26 25
-28 25 -3 0 5 -11 18 -25z"/>
<path d="M2300 5515 c-14 -16 -3 -20 19 -6 8 5 9 11 3 15 -5 3 -15 -1 -22 -9z"/>
<path d="M5150 5501 c0 -7 10 -26 23 -41 12 -15 29 -37 37 -50 8 -12 25 -34
37 -48 18 -22 23 -23 23 -9 0 9 -3 17 -8 17 -4 0 -18 18 -32 40 -14 22 -28 40
-33 40 -4 0 -16 15 -27 33 -11 17 -20 26 -20 18z"/>
<path d="M2265 5480 c-3 -5 -2 -10 4 -10 5 0 13 5 16 10 3 6 2 10 -4 10 -5 0
-13 -4 -16 -10z"/>
<path d="M4970 5474 c1 -12 39 -61 40 -51 0 5 -9 20 -20 34 -11 14 -20 22 -20
17z"/>
<path d="M5295 5460 c10 -11 20 -20 23 -20 3 0 -3 9 -13 20 -10 11 -20 20 -23
20 -3 0 3 -9 13 -20z"/>
<path d="M5032 5434 c10 -10 20 -16 22 -13 3 3 -5 11 -17 18 -21 13 -21 12 -5
-5z"/>
<path d="M5030 5396 c0 -2 8 -10 18 -17 15 -13 16 -12 3 4 -13 16 -21 21 -21
13z"/>
<path d="M4950 5365 c0 -8 77 -112 89 -119 6 -4 6 6 0 26 -6 18 -13 40 -16 49
-4 14 -17 23 -65 47 -5 2 -8 1 -8 -3z"/>
<path d="M5750 5329 c19 -19 44 -41 55 -49 18 -14 18 -13 -2 15 -12 17 -36 38
-55 49 l-33 19 35 -34z"/>
<path d="M5877 5316 c-4 -10 1 -12 16 -9 15 3 18 2 10 -4 -9 -7 0 -21 35 -54
78 -74 173 -152 178 -146 10 10 -20 92 -40 110 -19 17 -19 18 -2 13 17 -6 17
-5 5 10 -22 27 -110 94 -122 94 -7 0 -4 -5 6 -11 9 -5 17 -15 17 -20 0 -6 -4
-7 -10 -4 -5 3 -10 4 -10 0 0 -3 21 -19 47 -35 41 -26 44 -30 22 -30 -25 0
-37 10 -93 73 -27 29 -51 35 -59 13z"/>
<path d="M2361 5280 c-5 -16 -7 -30 -3 -30 4 0 2 -4 -4 -8 -17 -11 -26 -49
-14 -57 5 -3 10 1 10 9 0 9 5 16 11 16 6 0 9 -7 6 -15 -4 -8 -2 -17 3 -20 6
-4 10 22 10 64 0 39 -2 71 -4 71 -2 0 -9 -13 -15 -30z"/>
<path d="M8377 5298 c-10 -28 66 -221 98 -248 8 -6 -4 24 -25 67 -22 43 -40
87 -40 98 0 33 -26 99 -33 83z"/>
<path d="M2292 5220 c-14 -23 -15 -30 -3 -30 8 0 24 41 18 47 -2 1 -8 -7 -15
-17z"/>
<path d="M5110 5231 c0 -6 5 -13 10 -16 6 -3 10 1 10 9 0 9 -4 16 -10 16 -5 0
-10 -4 -10 -9z"/>
<path d="M8364 5168 c3 -24 9 -67 12 -96 4 -30 13 -56 20 -59 8 -3 23 -21 36
-41 25 -43 58 -78 58 -62 0 12 -73 190 -95 233 -8 16 -15 37 -15 48 0 10 -5
19 -11 19 -7 0 -9 -14 -5 -42z"/>
<path d="M4956 5169 c23 -26 94 -72 100 -66 3 3 -10 14 -29 26 -18 11 -42 29
-52 41 -10 11 -23 20 -28 20 -6 0 -2 -10 9 -21z"/>
<path d="M2196 5149 c-23 -27 -15 -35 9 -9 10 11 16 22 14 25 -3 2 -13 -5 -23
-16z"/>
<path d="M5507 5140 c10 -11 19 -20 21 -20 1 0 -2 9 -8 20 -6 11 -15 20 -20
20 -6 0 -2 -9 7 -20z"/>
<path d="M6004 5132 c17 -33 40 -44 34 -16 -2 9 -14 24 -27 32 l-24 16 17 -32z"/>
<path d="M2160 5070 c0 -5 5 -10 10 -10 6 0 10 5 10 10 0 6 -4 10 -10 10 -5 0
-10 -4 -10 -10z"/>
<path d="M6163 5000 c44 -44 82 -79 83 -77 5 5 -146 157 -155 157 -5 0 28 -36
72 -80z"/>
<path d="M5342 5030 c7 -11 16 -20 20 -20 5 0 3 9 -4 20 -7 11 -16 20 -20 20
-5 0 -3 -9 4 -20z"/>
<path d="M2398 4966 c-22 -20 -39 -29 -41 -23 -3 7 -5 2 -4 -9 1 -21 3 -20 42
10 22 17 42 32 44 33 1 1 1 6 0 12 -2 6 -21 -4 -41 -23z"/>
<path d="M2123 4972 c5 -21 3 -23 -20 -17 -21 5 -24 4 -16 -7 16 -19 4 -64
-20 -76 -12 -6 -17 -11 -10 -11 6 -1 25 10 41 24 35 29 51 81 32 98 -10 9 -11
7 -7 -11z"/>
<path d="M2840 4940 c0 -5 5 -10 10 -10 6 0 10 5 10 10 0 6 -4 10 -10 10 -5 0
-10 -4 -10 -10z"/>
<path d="M4760 4929 c6 -10 20 -19 30 -19 29 0 24 14 -10 27 -28 10 -29 10
-20 -8z"/>
<path d="M2315 4930 c-3 -5 -1 -10 4 -10 6 0 11 5 11 10 0 6 -2 10 -4 10 -3 0
-8 -4 -11 -10z"/>
<path d="M3123 4915 c-13 -15 -17 -25 -9 -25 7 0 18 11 24 25 14 31 13 31 -15
0z"/>
<path d="M4280 4934 c0 -12 34 -64 42 -64 4 0 0 16 -9 35 -15 30 -33 47 -33
29z"/>
<path d="M2255 4906 c-14 -14 -31 -26 -38 -26 -7 -1 -23 -7 -37 -15 l-25 -14
27 -1 c38 0 97 30 104 53 9 30 -3 31 -31 3z"/>
<path d="M2185 4905 c-25 -12 -26 -14 -5 -9 28 7 60 23 45 23 -5 0 -23 -6 -40
-14z"/>
<path d="M8436 4887 c3 -10 9 -15 12 -12 3 3 0 11 -7 18 -10 9 -11 8 -5 -6z"/>
<path d="M4281 4874 c0 -11 3 -14 6 -6 3 7 2 16 -1 19 -3 4 -6 -2 -5 -13z"/>
<path d="M4810 4864 c0 -12 7 -27 15 -34 19 -16 19 -3 0 30 -13 24 -14 24 -15
4z"/>
<path d="M4850 4875 c0 -5 5 -17 10 -25 5 -8 10 -10 10 -5 0 6 -5 17 -10 25
-5 8 -10 11 -10 5z"/>
<path d="M3236 4854 c-5 -14 -4 -15 9 -4 17 14 19 20 6 20 -5 0 -12 -7 -15
-16z"/>
<path d="M4500 4861 c0 -5 7 -14 15 -21 16 -14 18 -10 9 14 -6 17 -24 22 -24
7z"/>
<path d="M4950 4867 c0 -16 35 -70 49 -74 9 -3 24 -13 34 -22 10 -8 18 -11 17
-6 -2 6 -2 13 -1 17 1 8 102 -92 118 -118 9 -15 12 -16 12 -3 1 25 -120 141
-134 129 -9 -7 -24 3 -53 36 -23 25 -42 43 -42 41z"/>
<path d="M2780 4845 c-10 -12 -10 -15 0 -15 16 0 7 -10 -12 -14 -29 -6 -48
-19 -48 -32 0 -17 12 -18 29 -1 11 10 13 9 9 -3 -6 -19 -38 -26 -48 -11 -5 9
-10 7 -20 -4 -8 -10 -9 -15 -1 -15 6 0 11 -4 11 -10 0 -5 -6 -10 -13 -10 -22
0 -47 -34 -47 -62 0 -37 -10 -58 -26 -58 -8 0 -14 -7 -14 -15 0 -22 8 -19 42
18 28 30 30 31 23 7 -4 -14 -29 -45 -56 -69 -27 -24 -49 -51 -49 -60 0 -10
-16 -32 -35 -51 -19 -19 -35 -42 -35 -51 0 -10 -4 -21 -10 -24 -6 -4 -10 8
-10 29 0 20 -4 36 -10 36 -5 0 -10 -18 -10 -40 0 -55 39 -101 67 -79 10 8 24
19 31 24 7 6 23 20 34 32 11 12 26 19 33 17 17 -7 55 56 55 90 0 14 5 26 10
26 14 0 12 -17 -6 -69 -16 -48 -15 -54 6 -41 11 7 16 30 17 77 2 79 7 113 22
141 6 12 11 29 11 39 0 17 32 108 52 146 29 58 28 89 -2 52z m-130 -394 c0 -6
-4 -13 -10 -16 -5 -3 -10 1 -10 9 0 9 5 16 10 16 6 0 10 -4 10 -9z m-125 -91
c3 -5 1 -10 -4 -10 -6 0 -11 5 -11 10 0 6 2 10 4 10 3 0 8 -4 11 -10z"/>
<path d="M1950 4835 c-10 -12 -10 -15 4 -15 9 0 16 7 16 15 0 8 -2 15 -4 15
-2 0 -9 -7 -16 -15z"/>
<path d="M2080 4829 c0 -5 5 -7 10 -4 6 3 10 8 10 11 0 2 -4 4 -10 4 -5 0 -10
-5 -10 -11z"/>
<path d="M2573 4828 c-16 -27 -12 -40 8 -23 10 10 16 22 13 26 -7 12 -11 11
-21 -3z"/>
<path d="M8430 4810 c0 -8 5 -22 10 -30 9 -13 10 -13 10 0 0 8 -5 22 -10 30
-9 13 -10 13 -10 0z"/>
<path d="M1850 4800 c-8 -5 -12 -12 -9 -15 8 -8 39 5 39 16 0 11 -11 11 -30
-1z"/>
<path d="M4872 4802 c-7 -2 4 -20 29 -44 22 -22 42 -38 44 -37 7 9 -61 85 -73
81z"/>
<path d="M2470 4789 c0 -5 5 -7 10 -4 6 3 10 8 10 11 0 2 -4 4 -10 4 -5 0 -10
-5 -10 -11z"/>
<path d="M2505 4780 c-10 -11 -14 -20 -8 -20 5 0 18 9 28 20 10 11 14 20 8 20
-5 0 -18 -9 -28 -20z"/>
<path d="M3407 4779 c6 -23 9 -24 16 -5 3 8 0 17 -7 19 -10 4 -12 -1 -9 -14z"/>
<path d="M2527 4750 c-15 -16 -21 -30 -15 -30 14 1 53 48 46 56 -3 2 -17 -9
-31 -26z"/>
<path d="M4650 4766 c0 -2 8 -10 18 -17 15 -13 16 -12 3 4 -13 16 -21 21 -21
13z"/>
<path d="M4630 4756 c0 -4 6 -19 14 -35 16 -29 46 -59 46 -45 -1 11 -60 91
-60 80z"/>
<path d="M3627 4730 c-3 -11 -1 -23 4 -26 5 -3 9 6 9 20 0 31 -6 34 -13 6z"/>
<path d="M2851 4716 c-13 -33 -9 -43 8 -22 7 8 11 23 8 33 -3 14 -6 12 -16
-11z"/>
<path d="M3700 4700 c0 -11 2 -20 4 -20 2 0 6 9 9 20 3 11 1 20 -4 20 -5 0 -9
-9 -9 -20z"/>
<path d="M4905 4710 c3 -5 8 -10 11 -10 2 0 4 5 4 10 0 6 -5 10 -11 10 -5 0
-7 -4 -4 -10z"/>
<path d="M2380 4696 c0 -7 -7 -19 -15 -26 -16 -13 -21 -40 -7 -40 8 0 42 57
42 71 0 5 -4 9 -10 9 -5 0 -10 -6 -10 -14z"/>
<path d="M2465 4690 c-10 -11 -21 -17 -26 -15 -9 6 -54 -54 -46 -61 2 -3 14
10 26 28 16 25 21 28 21 14 0 -19 0 -19 21 0 25 23 43 54 31 54 -5 0 -17 -9
-27 -20z"/>
<path d="M2767 4703 c-4 -3 -7 -13 -7 -22 1 -13 3 -13 11 2 11 19 8 33 -4 20z"/>
<path d="M3597 4687 c-4 -10 -7 -28 -7 -40 1 -20 2 -20 11 -4 6 10 9 28 7 40
-3 20 -4 20 -11 4z"/>
<path d="M2578 4683 c7 -3 16 -2 19 1 4 3 -2 6 -13 5 -11 0 -14 -3 -6 -6z"/>
<path d="M3912 4668 c5 -15 28 -23 28 -10 0 5 -7 13 -16 16 -10 4 -14 1 -12
-6z"/>
<path d="M1820 4635 c-18 -10 -20 -14 -8 -15 9 0 20 5 24 11 3 6 17 9 30 6 13
-2 24 0 24 4 0 14 -42 10 -70 -6z"/>
<path d="M3490 4635 c-7 -9 -11 -18 -8 -20 3 -3 11 1 18 10 7 9 11 18 8 20 -3
3 -11 -1 -18 -10z"/>
<path d="M5151 4634 c0 -11 3 -14 6 -6 3 7 2 16 -1 19 -3 4 -6 -2 -5 -13z"/>
<path d="M2247 4633 c-4 -3 -7 -11 -7 -17 0 -6 5 -5 12 2 6 6 9 14 7 17 -3 3
-9 2 -12 -2z"/>
<path d="M2820 4620 c0 -11 4 -20 9 -20 5 0 7 9 4 20 -3 11 -7 20 -9 20 -2 0
-4 -9 -4 -20z"/>
<path d="M5220 4600 c18 -23 35 -39 38 -36 6 6 -49 74 -61 75 -5 1 6 -17 23
-39z"/>
<path d="M2190 4611 c0 -5 -3 -18 -6 -28 -6 -16 -5 -16 9 2 19 23 21 35 7 35
-5 0 -10 -4 -10 -9z"/>
<path d="M4230 4612 c0 -5 9 -17 20 -27 22 -20 26 -9 6 18 -14 18 -26 22 -26
9z"/>
<path d="M5170 4603 c5 -2 10 -10 10 -15 0 -23 34 -88 46 -88 7 0 15 -8 17
-17 4 -16 5 -16 6 -1 0 9 -5 23 -12 30 -7 7 -22 31 -33 52 -11 22 -26 41 -32
42 -7 1 -8 0 -2 -3z"/>
<path d="M5270 4604 c0 -7 9 -22 20 -35 25 -31 26 -12 0 21 -11 14 -20 20 -20
14z"/>
<path d="M2130 4580 c0 -5 5 -10 10 -10 6 0 10 5 10 10 0 6 -4 10 -10 10 -5 0
-10 -4 -10 -10z"/>
<path d="M2536 4571 c-4 -7 -5 -15 -2 -18 9 -9 19 4 14 18 -4 11 -6 11 -12 0z"/>
<path d="M5520 4571 c0 -6 7 -11 15 -11 9 0 15 -9 15 -25 0 -14 5 -25 11 -25
6 0 9 -6 6 -13 -5 -15 43 -67 62 -67 6 0 11 -5 11 -12 0 -9 3 -9 13 1 10 10 1
23 -43 64 -30 28 -49 47 -42 43 18 -11 14 9 -5 26 -28 23 -43 30 -43 19z"/>
<path d="M5320 4552 c0 -13 26 -58 47 -80 21 -22 15 -5 -17 46 -16 26 -30 41
-30 34z"/>
<path d="M5270 4530 c0 -5 5 -10 11 -10 5 0 7 5 4 10 -3 6 -8 10 -11 10 -2 0
-4 -4 -4 -10z"/>
<path d="M3986 4499 c-7 -31 -9 -60 -6 -79 2 -8 6 10 10 40 7 57 5 80 -4 39z"/>
<path d="M4201 4495 c0 -11 7 -36 14 -55 l14 -35 -6 45 c-6 46 -24 81 -22 45z"/>
<path d="M5288 4489 c-3 -8 0 -26 8 -40 12 -21 13 -22 13 -4 0 11 -4 29 -8 39
-6 16 -9 17 -13 5z"/>
<path d="M3891 4474 c0 -11 3 -14 6 -6 3 7 2 16 -1 19 -3 4 -6 -2 -5 -13z"/>
<path d="M6645 4480 c3 -5 11 -10 16 -10 6 0 7 5 4 10 -3 6 -11 10 -16 10 -6
0 -7 -4 -4 -10z"/>
<path d="M2495 4472 c-3 -3 -5 -9 -5 -14 0 -13 30 -9 45 6 12 11 10 14 -10 14
-13 0 -27 -3 -30 -6z"/>
<path d="M4012 4460 c0 -14 2 -19 5 -12 2 6 2 18 0 25 -3 6 -5 1 -5 -13z"/>
<path d="M5426 4459 c10 -12 18 -24 16 -27 -2 -4 1 -8 7 -10 6 -2 11 0 11 5
-1 11 -36 53 -46 53 -4 0 1 -9 12 -21z"/>
<path d="M5350 4447 c0 -17 49 -114 63 -126 20 -16 23 1 4 21 -13 13 -17 21
-17 36 0 4 -11 23 -25 42 -14 19 -25 31 -25 27z"/>
<path d="M4250 4410 c0 -15 31 -60 41 -60 5 0 9 7 9 15 0 8 -7 15 -15 15 -8 0
-15 6 -15 14 0 8 -4 18 -10 21 -5 3 -10 1 -10 -5z"/>
<path d="M4010 4396 c0 -8 5 -18 10 -21 6 -3 10 3 10 14 0 12 -4 21 -10 21 -5
0 -10 -6 -10 -14z"/>
<path d="M4050 4386 c0 -14 5 -28 10 -31 6 -3 10 5 10 19 0 14 -4 28 -10 31
-6 3 -10 -5 -10 -19z"/>
<path d="M2416 4391 c-4 -5 -3 -16 0 -25 3 -9 -1 -28 -11 -42 -18 -28 -15 -40
10 -31 11 5 15 21 15 57 0 49 -3 59 -14 41z"/>
<path d="M4206 4371 c-3 -4 1 -17 8 -27 13 -17 14 -17 9 9 -6 29 -9 32 -17 18z"/>
<path d="M5212 4353 c17 -41 30 -53 17 -15 -6 18 -15 35 -20 38 -5 3 -4 -7 3
-23z"/>
<path d="M2682 4353 c-17 -30 -15 -37 4 -19 8 9 14 22 11 29 -2 7 -8 4 -15
-10z"/>
<path d="M5542 4323 c6 -24 14 -43 19 -43 13 0 6 34 -13 61 -16 23 -16 23 -6
-18z"/>
<path d="M3940 4326 c-5 -15 -10 -42 -9 -59 0 -18 2 -27 4 -22 1 6 8 29 15 53
15 47 6 70 -10 28z"/>
<path d="M4031 4324 c0 -11 3 -14 6 -6 3 7 2 16 -1 19 -3 4 -6 -2 -5 -13z"/>
<path d="M5330 4331 c0 -6 4 -13 10 -16 6 -3 7 1 4 9 -7 18 -14 21 -14 7z"/>
<path d="M5720 4331 c0 -4 9 -16 20 -26 11 -10 20 -14 20 -9 0 5 -9 17 -20 27
-11 9 -20 13 -20 8z"/>
<path d="M3972 4281 c-7 -19 -12 -44 -12 -57 0 -12 -7 -30 -16 -38 -18 -18
-33 -93 -17 -83 6 4 16 21 23 39 29 77 34 86 47 81 10 -4 11 2 3 23 -5 16 -10
38 -12 49 -3 16 -6 13 -16 -14z"/>
<path d="M2580 4290 c-13 -8 -12 -10 3 -10 9 0 17 5 17 10 0 12 -1 12 -20 0z"/>
<path d="M4010 4288 c0 -9 5 -20 10 -23 13 -8 13 5 0 25 -8 13 -10 13 -10 -2z"/>
<path d="M5432 4269 c6 -16 12 -28 14 -26 5 5 -13 57 -20 57 -3 0 0 -14 6 -31z"/>
<path d="M5236 4277 c3 -10 9 -15 12 -12 3 3 0 11 -7 18 -10 9 -11 8 -5 -6z"/>
<path d="M4330 4236 c0 -14 5 -28 10 -31 6 -3 10 5 10 19 0 14 -4 28 -10 31
-6 3 -10 -5 -10 -19z"/>
<path d="M4750 4241 c0 -5 5 -13 10 -16 6 -3 10 -2 10 4 0 5 -4 13 -10 16 -5
3 -10 2 -10 -4z"/>
<path d="M5625 4230 c9 -31 11 -33 25 -28 7 2 3 13 -11 28 l-21 25 7 -25z"/>
<path d="M4051 4224 c0 -11 3 -14 6 -6 3 7 2 16 -1 19 -3 4 -6 -2 -5 -13z"/>
<path d="M5576 4218 c3 -13 10 -30 15 -38 7 -12 8 -10 9 7 0 28 -10 53 -22 53
-5 0 -6 -10 -2 -22z"/>
<path d="M6422 4230 c0 -8 4 -26 8 -40 6 -20 8 -21 8 -5 0 11 -3 29 -8 40 -5
12 -8 14 -8 5z"/>
<path d="M2450 4214 c0 -8 5 -12 10 -9 6 3 10 10 10 16 0 5 -4 9 -10 9 -5 0
-10 -7 -10 -16z"/>
<path d="M4415 4195 c15 -139 36 -212 56 -199 8 5 8 9 0 13 -6 4 -16 32 -21
62 -5 30 -16 79 -24 109 -13 47 -14 49 -11 15z"/>
<path d="M4720 4205 c0 -9 9 -15 21 -15 18 0 19 2 9 15 -7 8 -16 15 -21 15 -5
0 -9 -7 -9 -15z"/>
<path d="M5456 4185 c4 -8 8 -15 10 -15 2 0 4 7 4 15 0 8 -4 15 -10 15 -5 0
-7 -7 -4 -15z"/>
<path d="M2442 4160 c0 -14 2 -19 5 -12 2 6 2 18 0 25 -3 6 -5 1 -5 -13z"/>
<path d="M4666 4172 c-8 -13 25 -96 43 -106 12 -8 15 16 4 28 -5 4 -15 26 -24
48 -9 25 -19 36 -23 30z"/>
<path d="M4756 4164 c-9 -24 48 -104 74 -104 7 0 10 -17 8 -47 -1 -27 3 -61 9
-78 18 -43 34 -150 35 -220 l0 -60 9 60 c7 39 6 92 -1 153 -6 51 -8 97 -5 102
3 5 1 11 -4 14 -5 3 -11 -4 -14 -16 -4 -12 -9 -19 -13 -16 -3 4 0 22 7 42 13
36 13 38 -26 106 -19 32 -58 80 -66 80 -4 0 -10 -7 -13 -16z"/>
<path d="M2065 4146 c-9 -14 -15 -31 -13 -38 3 -7 12 3 21 21 21 41 15 53 -8
17z"/>
<path d="M3991 4138 c-9 -25 -3 -45 9 -31 14 15 22 53 10 53 -6 0 -14 -10 -19
-22z"/>
<path d="M5672 4130 c0 -14 2 -19 5 -12 2 6 2 18 0 25 -3 6 -5 1 -5 -13z"/>
<path d="M4092 4035 c-1 -57 2 -95 8 -95 6 0 10 21 10 47 0 48 14 50 23 3 3
-19 5 -16 6 11 1 30 -32 129 -43 129 -1 0 -3 -43 -4 -95z"/>
<path d="M5475 4105 c4 -11 9 -39 10 -62 2 -23 8 -50 14 -60 9 -15 10 -11 11
20 0 20 -4 37 -9 37 -5 0 -7 9 -4 19 3 11 -3 30 -12 43 -15 19 -16 20 -10 3z"/>
<path d="M5630 4111 c0 -5 5 -13 10 -16 6 -3 10 -2 10 4 0 5 -4 13 -10 16 -5
3 -10 2 -10 -4z"/>
<path d="M5720 4110 c0 -8 12 -42 26 -75 14 -33 30 -74 35 -91 9 -30 39 -43
39 -17 0 8 5 11 10 8 6 -3 10 -16 10 -28 0 -13 7 -33 16 -45 8 -12 14 -30 12
-41 -2 -10 3 -26 11 -35 11 -13 12 -22 4 -34 -12 -20 0 -129 16 -145 8 -8 11
-5 12 9 2 28 4 36 13 62 5 15 3 29 -6 39 -11 15 -11 16 5 10 11 -4 17 -2 17 7
0 8 5 16 10 18 16 5 -11 62 -71 154 -74 113 -109 155 -122 147 -6 -4 -8 -1 -5
8 3 9 -3 26 -13 40 -12 16 -19 19 -19 9z"/>
<path d="M5090 4086 c0 -9 5 -16 10 -16 6 0 10 4 10 9 0 6 -4 13 -10 16 -5 3
-10 -1 -10 -9z"/>
<path d="M4790 4028 c0 -19 2 -20 10 -8 13 19 13 30 0 30 -5 0 -10 -10 -10
-22z"/>
<path d="M5710 4043 c0 -4 5 -15 10 -23 8 -13 10 -13 10 2 0 9 -4 20 -10 23
-5 3 -10 3 -10 -2z"/>
<path d="M4420 4005 c0 -8 4 -15 10 -15 5 0 7 7 4 15 -4 8 -8 15 -10 15 -2 0
-4 -7 -4 -15z"/>
<path d="M5888 3974 c-3 -28 2 -45 23 -74 39 -53 50 -58 42 -18 -3 18 -12 42
-18 53 -7 11 -15 32 -19 48 -9 38 -23 34 -28 -9z"/>
<path d="M3842 3992 c-21 -14 -20 -66 1 -70 14 -3 17 4 17 37 0 23 -1 41 -2
41 -2 0 -9 -4 -16 -8z"/>
<path d="M5115 3986 c-5 -11 -3 -27 3 -37 7 -10 12 -26 12 -34 0 -8 5 -15 10
-15 6 0 10 4 10 9 0 5 3 16 6 24 3 8 -1 21 -9 28 -8 8 -16 21 -19 29 -5 12 -7
11 -13 -4z"/>
<path d="M5522 3940 c0 -14 2 -19 5 -12 2 6 2 18 0 25 -3 6 -5 1 -5 -13z"/>
<path d="M5751 3944 c-1 -12 6 -37 14 -55 19 -44 19 -8 0 41 -10 26 -14 29
-14 14z"/>
<path d="M8087 3954 c-4 -4 7 -24 23 -44 51 -64 36 -83 -19 -24 -20 21 -40 33
-48 30 -8 -3 -27 -6 -42 -6 -39 0 -40 -36 -1 -45 41 -9 130 -53 130 -64 0 -5
25 -21 55 -35 30 -14 55 -30 55 -37 0 -8 7 -5 20 6 15 13 17 22 10 36 -6 10
-10 29 -10 43 0 14 -4 26 -10 26 -5 0 -10 8 -10 18 0 10 -17 37 -37 60 -30 35
-42 42 -73 42 -20 0 -40 -3 -43 -6z m98 -43 c17 -10 17 -12 2 -7 -10 3 -25 6
-33 6 -8 0 -11 6 -7 16 3 9 9 12 12 6 3 -5 15 -14 26 -21z"/>
<path d="M4452 3923 c-3 -33 26 -123 39 -123 4 0 4 12 -2 28 -6 15 -11 43 -10
62 0 27 -2 32 -10 20 -8 -11 -9 -9 -5 13 4 15 3 27 -2 27 -4 0 -9 -12 -10 -27z"/>
<path d="M5244 3912 c-6 -4 -8 -18 -4 -32 6 -24 7 -24 11 8 3 17 5 32 5 32 -1
0 -6 -4 -12 -8z"/>
<path d="M5186 3893 c-11 -12 -5 -98 9 -123 8 -14 14 -33 15 -43 0 -10 7 -25
15 -33 18 -19 18 -19 0 42 -8 27 -15 73 -16 102 -2 51 -9 68 -23 55z"/>
<path d="M5796 3891 c-3 -5 -2 -20 3 -33 5 -13 15 -51 22 -86 11 -58 29 -93
29 -57 0 16 -40 177 -45 183 -2 2 -6 -1 -9 -7z"/>
<path d="M5270 3885 c0 -3 9 -24 20 -45 28 -55 45 -50 18 5 -19 38 -38 58 -38
40z"/>
<path d="M5710 3869 c0 -14 6 -34 14 -45 13 -17 14 -15 6 19 -10 47 -20 59
-20 26z"/>
<path d="M7830 3875 c0 -9 9 -15 25 -15 14 0 25 -4 25 -10 0 -5 5 -10 10 -10
16 0 11 37 -6 44 -28 11 -54 6 -54 -9z"/>
<path d="M3792 3857 c-9 -11 -10 -17 -2 -22 15 -9 23 -1 18 21 -3 15 -4 16
-16 1z"/>
<path d="M3885 3849 c-4 -12 -2 -26 4 -32 8 -8 11 -2 11 21 0 37 -6 41 -15 11z"/>
<path d="M5732 3780 c0 -14 2 -19 5 -12 2 6 2 18 0 25 -3 6 -5 1 -5 -13z"/>
<path d="M5776 3760 c3 -25 13 -72 20 -105 l14 -60 -5 65 c-6 94 -11 120 -24
133 -9 9 -10 2 -5 -33z"/>
<path d="M3916 3771 c-7 -11 14 -51 27 -51 9 0 -1 40 -13 53 -4 5 -11 4 -14
-2z"/>
<path d="M5266 3735 c4 -16 10 -39 14 -49 6 -17 8 -16 14 9 6 22 2 33 -14 49
l-21 21 7 -30z"/>
<path d="M4811 3703 c1 -21 5 -49 9 -63 6 -19 8 -12 9 32 1 31 -3 60 -9 63 -6
4 -10 -9 -9 -32z"/>
<path d="M8290 3705 c0 -14 5 -25 10 -25 6 0 10 11 10 25 0 14 -4 25 -10 25
-5 0 -10 -11 -10 -25z"/>
<path d="M5010 3709 c0 -5 5 -7 10 -4 6 3 10 8 10 11 0 2 -4 4 -10 4 -5 0 -10
-5 -10 -11z"/>
<path d="M5980 3685 c4 -20 12 -40 16 -43 10 -10 -5 61 -15 71 -6 6 -6 -6 -1
-28z"/>
<path d="M5362 3699 c-1 -9 -9 -22 -17 -29 -10 -9 -15 -32 -15 -77 0 -40 -4
-62 -10 -58 -5 3 -10 22 -10 41 0 19 -4 34 -10 34 -5 0 -10 -18 -10 -40 0 -28
-4 -40 -15 -40 -39 0 -41 -68 -3 -143 14 -29 16 -42 8 -52 -13 -16 -5 -76 16
-117 17 -33 34 -45 27 -18 -3 11 0 20 6 20 20 0 47 -58 49 -107 3 -50 27 -96
54 -101 9 -2 32 12 52 31 38 36 49 76 19 73 -10 0 -19 7 -21 17 -2 12 3 17 17
17 16 0 21 6 21 28 0 41 -28 164 -40 176 -15 15 -12 29 5 22 17 -6 22 29 6 38
-5 4 -12 24 -16 46 -4 22 -11 40 -17 40 -6 0 -7 -9 -3 -22 23 -73 12 -111 -26
-87 -8 5 -10 9 -6 9 5 0 1 7 -7 16 -10 9 -16 33 -16 60 0 25 -7 55 -15 68 -14
21 -14 24 0 29 19 8 19 31 1 47 -8 6 -17 30 -19 53 -2 23 -4 35 -5 26z m-78
-214 c-4 -8 -10 -12 -15 -9 -14 8 -10 24 6 24 9 0 12 -6 9 -15z m81 -45 c14
-27 25 -57 25 -66 0 -9 -13 10 -30 42 -16 32 -30 62 -30 67 0 18 11 3 35 -43z
m40 -110 c12 0 25 -21 25 -41 0 -19 -46 25 -47 45 -1 12 1 15 4 9 3 -7 11 -13
18 -13z m-26 -61 c17 -39 5 -51 -21 -19 -11 14 -25 24 -29 23 -5 -2 -9 4 -9
12 0 29 44 17 59 -16z m82 -86 c-6 -21 -11 -54 -12 -73 -1 -54 -17 -7 -18 52
-1 38 2 46 14 42 11 -4 15 1 16 17 0 13 3 19 5 12 3 -6 1 -29 -5 -50z m19
-110 c-1 -24 -2 -26 -11 -10 -5 9 -7 22 -4 27 10 17 15 11 15 -17z"/>
<path d="M4881 3634 c0 -11 3 -14 6 -6 3 7 2 16 -1 19 -3 4 -6 -2 -5 -13z"/>
<path d="M5415 3640 c3 -5 8 -10 11 -10 2 0 4 5 4 10 0 6 -5 10 -11 10 -5 0
-7 -4 -4 -10z"/>
<path d="M5757 3638 c-2 -7 -1 -33 3 -58 l7 -45 2 58 c1 56 -2 69 -12 45z"/>
<path d="M5852 3610 c0 -19 2 -27 5 -17 2 9 2 25 0 35 -3 9 -5 1 -5 -18z"/>
<path d="M5701 3604 c0 -11 3 -14 6 -6 3 7 2 16 -1 19 -3 4 -6 -2 -5 -13z"/>
<path d="M5921 3591 c-8 -14 -7 -22 4 -31 13 -11 15 -8 15 19 0 36 -5 39 -19
12z"/>
<path d="M5017 3552 c7 -69 11 -74 12 -15 1 28 -3 54 -8 57 -5 3 -6 -16 -4
-42z"/>
<path d="M4976 3538 c7 -56 24 -90 24 -47 0 43 -12 99 -22 99 -5 0 -6 -23 -2
-52z"/>
<path d="M5710 3524 c0 -8 5 -12 10 -9 6 4 8 11 5 16 -9 14 -15 11 -15 -7z"/>
<path d="M5130 3448 c0 -30 13 -80 31 -123 5 -12 6 12 3 60 -4 44 -8 83 -11
88 -10 18 -23 4 -23 -25z"/>
<path d="M5181 3381 c-1 -27 2 -32 11 -23 8 8 8 17 0 34 -10 22 -11 21 -11
-11z"/>
<path d="M5212 3276 c-1 -25 3 -48 9 -52 15 -9 24 5 12 17 -8 8 -8 20 -3 34 6
16 5 27 -4 34 -11 9 -14 2 -14 -33z"/>
<path d="M3256 3217 c3 -10 9 -15 12 -12 3 3 0 11 -7 18 -10 9 -11 8 -5 -6z"/>
<path d="M2890 3184 c0 -20 25 -63 32 -54 2 3 -4 21 -14 40 -13 26 -18 30 -18
14z"/>
<path d="M3260 3148 c0 -36 4 -48 15 -48 20 0 20 50 0 76 -13 18 -14 15 -15
-28z"/>
<path d="M0 2233 c0 -945 0 -946 20 -928 21 19 27 51 10 57 -5 2 -7 13 -4 25
4 13 10 20 15 17 5 -3 9 2 9 11 0 10 11 26 25 37 14 11 25 26 25 34 0 8 4 14
9 14 5 0 14 14 21 30 7 16 16 30 20 30 4 0 17 21 29 48 12 26 33 67 46 92 14
25 25 58 25 73 0 51 30 121 70 166 24 27 40 54 40 69 0 14 17 50 37 80 30 43
39 67 45 121 17 145 17 141 -3 152 -10 5 -19 20 -19 33 0 20 -6 24 -46 30 -26
3 -62 6 -80 6 -40 0 -45 17 -9 26 26 6 35 24 13 25 -67 3 -134 19 -80 19 12 0
22 5 22 10 0 6 7 10 16 10 24 0 50 30 35 40 -10 6 -11 12 -1 30 15 28 -2 43
-42 36 -23 -5 -28 -2 -28 14 0 17 7 20 50 20 49 0 66 12 34 24 -23 9 -62 7
-68 -3 -8 -13 -96 10 -96 26 0 17 17 17 23 1 4 -10 8 -10 15 1 6 9 27 13 58
13 26 -1 54 4 61 10 8 6 31 15 51 19 24 5 11 6 -38 3 -116 -8 -181 26 -77 41
l52 7 -52 16 c-29 9 -53 20 -53 24 0 8 66 28 95 28 11 0 26 4 33 9 8 5 -14 10
-57 14 -88 7 -120 22 -70 32 65 13 73 16 58 26 -8 5 -51 9 -96 9 -49 0 -83 4
-83 10 0 6 15 10 34 10 40 0 66 8 66 21 0 5 -10 9 -22 9 -13 0 -40 6 -61 13
l-38 14 38 10 c21 6 57 14 80 18 67 11 65 27 -3 25 -107 -4 -134 -1 -134 15 0
8 7 15 16 15 8 0 22 7 31 15 13 14 11 16 -16 21 -17 4 -31 10 -31 15 0 5 -4 9
-10 9 -7 0 -10 -322 -10 -947z m267 351 c-3 -3 -12 -4 -19 -1 -8 3 -5 6 6 6
11 1 17 -2 13 -5z"/>
<path d="M5195 3131 c-3 -5 -1 -12 5 -16 5 -3 10 1 10 9 0 18 -6 21 -15 7z"/>
<path d="M3307 3124 c-3 -4 -2 -15 3 -25 6 -9 7 -26 4 -36 -5 -14 -4 -15 4 -4
9 12 13 10 23 -12 9 -21 15 -24 22 -15 6 9 7 7 3 -6 -4 -11 0 -26 10 -37 23
-26 34 -24 34 6 0 15 -18 45 -46 77 -26 29 -48 54 -49 56 -1 1 -5 -1 -8 -4z"/>
<path d="M5301 3114 c0 -11 3 -14 6 -6 3 7 2 16 -1 19 -3 4 -6 -2 -5 -13z"/>
<path d="M5362 3020 c0 -14 2 -19 5 -12 2 6 2 18 0 25 -3 6 -5 1 -5 -13z"/>
<path d="M3280 3020 c0 -5 7 -10 15 -10 8 0 15 5 15 10 0 6 -7 10 -15 10 -8 0
-15 -4 -15 -10z"/>
<path d="M5457 2989 c-17 -18 -23 -29 -14 -29 17 0 61 46 50 53 -4 2 -21 -8
-36 -24z"/>
<path d="M3758 2688 c9 -9 15 -9 24 0 9 9 7 12 -12 12 -19 0 -21 -3 -12 -12z"/>
<path d="M3795 2670 c3 -5 8 -10 11 -10 2 0 4 5 4 10 0 6 -5 10 -11 10 -5 0
-7 -4 -4 -10z"/>
<path d="M4880 2600 c0 -5 7 -10 16 -10 8 0 12 5 9 10 -3 6 -10 10 -16 10 -5
0 -9 -4 -9 -10z"/>
<path d="M5005 2560 c3 -5 8 -10 11 -10 2 0 4 5 4 10 0 6 -5 10 -11 10 -5 0
-7 -4 -4 -10z"/>
<path d="M378 2483 c7 -3 16 -2 19 1 4 3 -2 6 -13 5 -11 0 -14 -3 -6 -6z"/>
<path d="M3680 2353 c0 -14 19 -38 25 -32 8 8 -5 39 -16 39 -5 0 -9 -3 -9 -7z"/>
<path d="M5270 2180 c0 -5 11 -10 25 -10 14 0 25 5 25 10 0 6 -11 10 -25 10
-14 0 -25 -4 -25 -10z"/>
<path d="M3534 2088 c-16 -30 -15 -49 2 -135 5 -28 3 -33 -12 -34 -11 0 -4 -5
15 -11 46 -13 53 -2 58 86 3 58 0 81 -13 101 -21 33 -30 32 -50 -7z"/>
<path d="M3276 1054 c-8 -22 -1 -28 19 -17 14 8 14 11 2 22 -12 9 -16 8 -21
-5z"/>
</g>
</svg>
